<svg width="15" height="15" viewBox="0 0 15 15" fill="none" xmlns="http://www.w3.org/2000/svg">
<path d="M13.5644 1.24301C13.8072 1.48191 13.9893 1.75606 14.1107 2.06546C14.236 2.37094 14.3183 2.71166 14.3574 3.08764C14.4005 3.45969 14.422 3.87091 14.422 4.3213V10.2018C14.422 10.6521 14.4005 11.0653 14.3574 11.4413C14.3183 11.8134 14.236 12.1521 14.1107 12.4576C13.9893 12.767 13.8072 13.0431 13.5644 13.2859C13.3215 13.5287 13.0454 13.7108 12.736 13.8323C12.4266 13.9576 12.084 14.0418 11.708 14.0849C11.332 14.1319 10.9188 14.1554 10.4685 14.1554H4.59386C4.14348 14.1554 3.7303 14.1319 3.35433 14.0849C2.97835 14.0418 2.63567 13.9576 2.32627 13.8323C2.02079 13.7108 1.74469 13.5287 1.49796 13.2859C1.25514 13.0431 1.07303 12.769 0.951619 12.4635C0.830211 12.158 0.747966 11.8173 0.704886 11.4413C0.661806 11.0653 0.640266 10.6521 0.640266 10.2018V4.28605C0.640266 3.63201 0.693137 3.05239 0.79888 2.54717C0.904622 2.04196 1.13961 1.60724 1.50383 1.24301C1.86805 0.87879 2.30473 0.643807 2.81386 0.538064C3.32299 0.428405 3.90262 0.373576 4.55274 0.373576H10.4685C10.9188 0.373576 11.332 0.395116 11.708 0.438196C12.084 0.481277 12.4266 0.565479 12.736 0.690804C13.0454 0.816128 13.3215 1.0002 13.5644 1.24301ZM13.3822 4.11569C13.3822 3.6888 13.3431 3.28933 13.2648 2.91727C13.1864 2.5413 13.0317 2.23778 12.8007 2.00671C12.5696 1.77564 12.2641 1.61899 11.8842 1.53674C11.5043 1.4545 11.1009 1.41338 10.6741 1.41338H4.4235C3.98486 1.41338 3.57169 1.45254 3.18396 1.53087C2.80016 1.6092 2.49272 1.76585 2.26165 2.00084C2.03058 2.2319 1.87589 2.53934 1.79756 2.92315C1.71923 3.30304 1.68007 3.71426 1.68007 4.15681V10.4074C1.68007 10.8343 1.71923 11.2357 1.79756 11.6117C1.87589 11.9876 2.03058 12.2912 2.26165 12.5222C2.49272 12.7533 2.7982 12.9099 3.17809 12.9922C3.55798 13.0744 3.96137 13.1156 4.38825 13.1156H10.6741C11.1009 13.1156 11.5043 13.0744 11.8842 12.9922C12.2641 12.9099 12.5696 12.7533 12.8007 12.5222C13.0278 12.2912 13.1806 11.9876 13.2589 11.6117C13.3411 11.2357 13.3822 10.8343 13.3822 10.4074V4.11569ZM4.06515 7.26447C4.06515 7.09998 4.11606 6.96682 4.21789 6.865C4.31972 6.76317 4.45287 6.71226 4.61736 6.71226H6.9907V4.33892C6.9907 4.17443 7.03965 4.04128 7.13756 3.93945C7.23939 3.83371 7.36863 3.78084 7.52528 3.78084C7.68586 3.78084 7.81705 3.83371 7.91888 3.93945C8.02462 4.04128 8.07749 4.17443 8.07749 4.33892V6.71226H10.4567C10.6173 6.71226 10.7485 6.76317 10.8503 6.865C10.9521 6.96682 11.003 7.09998 11.003 7.26447C11.003 7.41721 10.9521 7.54449 10.8503 7.64632C10.7485 7.74423 10.6173 7.79318 10.4567 7.79318H8.07749V10.1724C8.07749 10.3369 8.02462 10.47 7.91888 10.5719C7.81705 10.6737 7.68586 10.7246 7.52528 10.7246C7.36863 10.7246 7.23939 10.6737 7.13756 10.5719C7.03965 10.4661 6.9907 10.333 6.9907 10.1724V7.79318H4.61736C4.45679 7.79318 4.32363 7.74423 4.21789 7.64632C4.11606 7.54449 4.06515 7.41721 4.06515 7.26447Z" fill="black"/>
</svg>
