<svg width="24" height="24" viewBox="0 0 24 24" fill="none" xmlns="http://www.w3.org/2000/svg">
<path fill-rule="evenodd" clip-rule="evenodd" d="M12.4472 1.60557C12.1657 1.46481 11.8343 1.46481 11.5528 1.60557L2.55279 6.10557C2.214 6.27496 2 6.62123 2 7V9C2 9.55228 2.44772 10 3 10H4L4.00001 16C3.56958 16 3.18744 16.2754 3.05132 16.6838L2.05132 19.6838C1.94967 19.9887 2.00081 20.3239 2.18877 20.5847C2.37672 20.8455 2.67856 21 3.00001 21H21C21.3215 21 21.6233 20.8455 21.8113 20.5847C21.9992 20.3239 22.0503 19.9887 21.9487 19.6838L20.9487 16.6838C20.8126 16.2754 20.4304 16 20 16V10H21C21.5523 10 22 9.55228 22 9V7C22 6.62123 21.786 6.27496 21.4472 6.10557L12.4472 1.60557ZM18 10H16V16H18V10ZM14 16V10H10V16H14ZM8 16V10H6V16H8Z" fill="#16171A"/>
</svg>
