<svg width="24" height="24" viewBox="0 0 24 24" fill="none" xmlns="http://www.w3.org/2000/svg">
<path fill-rule="evenodd" clip-rule="evenodd" d="M2 5C2 4.44772 2.44772 4 3 4H23C23.5523 4 24 4.44772 24 5V19C24 19.5523 23.5523 20 23 20H3C2.44772 20 2 19.5523 2 19V5ZM5 6C4.44772 6 4 6.44772 4 7C4 7.55228 4.44772 8 5 8H6C6.55228 8 7 7.55228 7 7C7 6.44772 6.55228 6 6 6H5ZM13 9.5C11.6193 9.5 10.5 10.6193 10.5 12C10.5 13.3807 11.6193 14.5 13 14.5C14.3807 14.5 15.5 13.3807 15.5 12C15.5 10.6193 14.3807 9.5 13 9.5ZM20 16C19.4477 16 19 16.4477 19 17C19 17.5523 19.4477 18 20 18H21C21.5523 18 22 17.5523 22 17C22 16.4477 21.5523 16 21 16H20Z" fill="#16171A"/>
</svg>
