<svg width="24" height="24" viewBox="0 0 24 24" fill="none" xmlns="http://www.w3.org/2000/svg">
<path d="M19 3H20C20 2.44772 19.5523 2 19 2V3ZM19 21V22H20V21H19ZM19 17V18H20V17H19ZM9 6C8.44772 6 8 6.44772 8 7C8 7.55228 8.44772 8 9 8V6ZM15 8C15.5523 8 16 7.55228 16 7C16 6.44772 15.5523 6 15 6V8ZM9 10C8.44772 10 8 10.4477 8 11C8 11.5523 8.44772 12 9 12V10ZM12 12C12.5523 12 13 11.5523 13 11C13 10.4477 12.5523 10 12 10V12ZM7 4H19V2H7V4ZM18 3V21H20V3H18ZM19 20H7V22H19V20ZM6 19V5H4V19H6ZM7 20C6.44771 20 6 19.5523 6 19H4C4 20.6569 5.34315 22 7 22V20ZM7 2C5.34315 2 4 3.34315 4 5H6C6 4.44772 6.44772 4 7 4V2ZM18 12V17H20V12H18ZM19 16H7V18H19V16ZM7 22H10V20H7V22ZM7 16C5.34315 16 4 17.3431 4 19H6C6 18.4477 6.44772 18 7 18V16ZM9 8H15V6H9V8ZM9 12H12V10H9V12Z" fill="#16171A"/>
</svg>
