<svg width="24" height="24" viewBox="0 0 24 24" fill="none" xmlns="http://www.w3.org/2000/svg">
<path d="M14 10C12.8954 10 12 10.8954 12 12C12 13.1046 12.8954 14 14 14C15.1046 14 16 13.1046 16 12C16 10.8954 15.1046 10 14 10Z" fill="#16171A"/>
<path fill-rule="evenodd" clip-rule="evenodd" d="M5.5 3C5.23478 3 4.98043 3.10536 4.79289 3.29289L4.08579 4H3C2.44772 4 2 4.44772 2 5V19C2 19.5523 2.44772 20 3 20H21C21.5523 20 22 19.5523 22 19V5C22 4.44772 21.5523 4 21 4H9.91421L9.20711 3.29289C9.01957 3.10536 8.76522 3 8.5 3H5.5ZM10 12C10 9.79086 11.7909 8 14 8C16.2091 8 18 9.79086 18 12C18 14.2091 16.2091 16 14 16C11.7909 16 10 14.2091 10 12ZM7 10C7.55228 10 8 9.55228 8 9C8 8.44772 7.55228 8 7 8C6.44772 8 6 8.44772 6 9C6 9.55228 6.44772 10 7 10Z" fill="#16171A"/>
</svg>
