<svg width="16" height="16" viewBox="0 0 16 16" fill="none" xmlns="http://www.w3.org/2000/svg">
<g clip-path="url(#clip0_2253_6275)">
<path d="M-2.90906 -0.181885H18.9091V16.1818H-2.90906V-0.181885Z" fill="#003399"/>
<g clip-path="url(#clip1_2253_6275)">
<path d="M7.53551 3.88004L8.00411 3.53817L8.47193 3.88004L8.29356 3.32773L8.7692 2.98586H8.18326L8.00411 2.42651L7.82418 2.98664L7.23901 2.98586L7.71387 3.32773L7.53551 3.88004Z" fill="#FFF200"/>
<path d="M5.11258 4.53097L5.58118 4.1891L6.049 4.53097L5.87064 3.97866L6.34628 3.63679H5.76033L5.5804 3.07666L5.40125 3.63757L4.81531 3.63679L5.29095 3.97866L5.11258 4.53097Z" fill="#FFF200"/>
<path d="M3.80831 4.85327L3.62838 5.41418L3.04321 5.4134L3.51807 5.75527L3.33971 6.30758L3.80831 5.96571L4.27613 6.30758L4.09776 5.75527L4.5734 5.4134H3.98746L3.80831 4.85327Z" fill="#FFF200"/>
<path d="M3.15821 8.38539L3.62603 8.72725L3.44766 8.17495L3.9233 7.83308H3.33736L3.15821 7.27295L2.97828 7.83386L2.39233 7.83308L2.86798 8.17495L2.68961 8.72725L3.15821 8.38539Z" fill="#FFF200"/>
<path d="M3.98746 10.2598L3.80831 9.70044L3.62838 10.2606L3.04321 10.2598L3.51807 10.6017L3.33971 11.154L3.80831 10.8121L4.27613 11.154L4.09776 10.6017L4.5734 10.2598H3.98746Z" fill="#FFF200"/>
<path d="M5.76321 12.0364L5.58406 11.4771L5.40492 12.0364H4.81897L5.29383 12.3775L5.11625 12.9306L5.58406 12.5887L6.05266 12.9306L5.8743 12.3775L6.34994 12.0364H5.76321Z" fill="#FFF200"/>
<path d="M8.18326 12.6795L8.00411 12.1201L7.82496 12.6802L7.23901 12.6795L7.71387 13.0213L7.53629 13.5736L8.00411 13.2318L8.47193 13.5736L8.29434 13.0213L8.76998 12.6795H8.18326Z" fill="#FFF200"/>
<path d="M10.6027 12.0364L10.4235 11.4771L10.2444 12.0364H9.65845L10.1333 12.3775L9.95572 12.9306L10.4235 12.5887L10.8921 12.9306L10.7138 12.3775L11.1894 12.0364H10.6027Z" fill="#FFF200"/>
<path d="M12.3793 10.2598L12.2002 9.70044L12.0202 10.2606L11.4351 10.2598L11.9099 10.6017L11.7316 11.154L12.2002 10.8121L12.668 11.154L12.4896 10.6017L12.9652 10.2598H12.3793Z" fill="#FFF200"/>
<path d="M13.6081 7.82595H13.0222L12.843 7.2666L12.6639 7.82673L12.0771 7.82595L12.5528 8.16782L12.3752 8.72012L12.843 8.37826L13.3108 8.72012L13.1333 8.16782L13.6081 7.82595Z" fill="#FFF200"/>
<path d="M11.7316 6.30045L12.2002 5.95858L12.668 6.30045L12.4896 5.74736L12.9652 5.40627H12.3793L12.2002 4.84692L12.0202 5.40705L11.4351 5.40627L11.9099 5.74736L11.7316 6.30045Z" fill="#FFF200"/>
<path d="M10.4304 3.07739L10.2512 3.63752L9.66528 3.63674L10.1401 3.97861L9.96256 4.5317L10.4312 4.18905L10.8982 4.5317L10.7206 3.97861L11.1963 3.63674H10.6095L10.4304 3.07739Z" fill="#FFF200"/>
</g>
</g>
<defs>
<clipPath id="clip0_2253_6275">
<rect width="21.8182" height="16.3636" fill="white" transform="translate(-2.90906 -0.181885)"/>
</clipPath>
<clipPath id="clip1_2253_6275">
<rect width="11.2159" height="11.1471" fill="white" transform="translate(2.39221 2.42651)"/>
</clipPath>
</defs>
</svg>
