<svg width="24" height="24" viewBox="0 0 24 24" fill="none" xmlns="http://www.w3.org/2000/svg">
<path fill-rule="evenodd" clip-rule="evenodd" d="M12 2C12.3529 2 12.6797 2.18601 12.8599 2.48946L22.3599 18.4895C22.5434 18.7985 22.5469 19.1823 22.3691 19.4947C22.1912 19.8071 21.8594 20 21.5 20H2.5C2.14055 20 1.80876 19.8071 1.63094 19.4947C1.45312 19.1823 1.45663 18.7985 1.64015 18.4895L11.1401 2.48946C11.3203 2.18601 11.6471 2 12 2ZM12 9C12.5523 9 13 9.44771 13 10V12C13 12.5523 12.5523 13 12 13C11.4477 13 11 12.5523 11 12V10C11 9.44771 11.4477 9 12 9ZM10.75 15C10.75 14.3096 11.3096 13.75 12 13.75C12.6904 13.75 13.25 14.3096 13.25 15C13.25 15.6904 12.6904 16.25 12 16.25C11.3096 16.25 10.75 15.6904 10.75 15Z" fill="#16171A"/>
</svg>
