<svg width="24" height="24" viewBox="0 0 24 24" fill="none" xmlns="http://www.w3.org/2000/svg">
<path d="M10.607 4.09497C10.0598 4.16981 9.67687 4.67407 9.75172 5.22126C9.82656 5.76845 10.3308 6.15137 10.878 6.07652L10.607 4.09497ZM22 11.9999L22.8882 12.4594C23.0373 12.1712 23.0373 11.8287 22.8882 11.5405L22 11.9999ZM19.5181 14.02C19.1738 14.4519 19.2449 15.081 19.6767 15.4253C20.1086 15.7695 20.7378 15.6985 21.082 15.2666L19.5181 14.02ZM3.70711 2.29289C3.31658 1.90237 2.68342 1.90237 2.29289 2.29289C1.90237 2.68342 1.90237 3.31658 2.29289 3.70711L3.70711 2.29289ZM20.2929 21.7071C20.6834 22.0976 21.3166 22.0976 21.7071 21.7071C22.0976 21.3166 22.0976 20.6834 21.7071 20.2929L20.2929 21.7071ZM2 12L1.11178 11.5406C0.96274 11.8287 0.96274 12.1713 1.11178 12.4594L2 12ZM7.18937 7.48108C7.65206 7.17953 7.78268 6.55998 7.48113 6.09729C7.17957 5.6346 6.56002 5.50398 6.09733 5.80554L7.18937 7.48108ZM17.9027 18.1944C18.3654 17.8928 18.496 17.2733 18.1944 16.8106C17.8929 16.3479 17.2733 16.2173 16.8106 16.5188L17.9027 18.1944ZM10.878 6.07652C14.5691 5.57166 18.5835 7.57111 21.1118 12.4594L22.8882 11.5405C20.0548 6.06251 15.3042 3.45251 10.607 4.09497L10.878 6.07652ZM21.082 15.2666C21.7445 14.4356 22.3505 13.4991 22.8882 12.4594L21.1118 11.5405C20.6305 12.471 20.0946 13.2967 19.5181 14.02L21.082 15.2666ZM12 14C10.8954 14 10 13.1046 10 12H8C8 14.2091 9.79086 16 12 16V14ZM2.29289 3.70711L9.17157 10.5858L10.5858 9.17157L3.70711 2.29289L2.29289 3.70711ZM10 12C10 11.4474 10.2228 10.9488 10.5858 10.5858L9.17157 9.17157C8.44881 9.89434 8 10.8957 8 12H10ZM9.17157 10.5858L13.4142 14.8284L14.8284 13.4142L10.5858 9.17157L9.17157 10.5858ZM13.4142 14.8284L20.2929 21.7071L21.7071 20.2929L14.8284 13.4142L13.4142 14.8284ZM13.4142 13.4142C13.0512 13.7772 12.5526 14 12 14V16C13.1043 16 14.1057 15.5512 14.8284 14.8284L13.4142 13.4142ZM2.29289 3.70711L20.2929 21.7071L21.7071 20.2929L3.70711 2.29289L2.29289 3.70711ZM2.88822 12.4594C4.0635 10.1872 5.56387 8.5405 7.18937 7.48108L6.09733 5.80554C4.14612 7.07724 2.42496 9.00172 1.11178 11.5406L2.88822 12.4594ZM1.11178 12.4594C3.00295 16.1158 5.74306 18.4987 8.78165 19.486C11.8271 20.4756 15.0837 20.0316 17.9027 18.1944L16.8106 16.5188C14.4793 18.0383 11.8492 18.3798 9.39972 17.5839C6.94336 16.7858 4.58027 14.812 2.88822 11.5406L1.11178 12.4594Z" fill="#16171A"/>
</svg>
