<svg width="24" height="24" viewBox="0 0 24 24" fill="none" xmlns="http://www.w3.org/2000/svg">
<path d="M14.5 16C18.0899 16 21 13.0899 21 9.5C21 8.75038 20.8731 8.03041 20.6396 7.36037L18 10C16.8954 11.1046 15.1046 11.1046 14 10C12.8954 8.89543 12.8954 7.10457 14 6L16.6396 3.36037C15.9696 3.12689 15.2496 3 14.5 3C10.9101 3 8 5.91015 8 9.5C8 10.3864 8.17743 11.2314 8.4987 12.0013L3 17.5L6.5 21L11.9987 15.5013C12.7686 15.8226 13.6136 16 14.5 16Z" stroke="black" stroke-width="2" stroke-linejoin="round"/>
</svg>
