<svg width="25" height="24" viewBox="0 0 25 24" fill="none" xmlns="http://www.w3.org/2000/svg">
<g id="Icons/mobile_friendly_24px">
<path id="icon" fill-rule="evenodd" clip-rule="evenodd" d="M19.4507 21V3C19.4507 1.9 18.5507 1.01 17.4507 1.01L7.45068 1C6.35068 1 5.45068 1.9 5.45068 3V7H7.45068V6H17.4507V18H7.45068V17H5.45068V21C5.45068 22.1 6.35068 23 7.45068 23H17.4507C18.5507 23 19.4507 22.1 19.4507 21ZM7.45068 21V20H17.4507V21H7.45068ZM17.4507 3H7.45068V4H17.4507V3Z" fill="black"/>
<path id="icon_2" d="M4.25082 8V9.99404L7.85631 10.0011L3.35733 14.5L4.77155 15.9142L9.27052 11.4153L9.27732 15H11.2714L11.2716 8H4.25082Z" fill="black"/>
</g>
</svg>
