<svg version="1.1" id="Layer_1" xmlns="http://www.w3.org/2000/svg" xmlns:xlink="http://www.w3.org/1999/xlink" x="0px" y="0px"
	 width="100%" viewBox="0 0 592 592" enable-background="new 0 0 592 592" xml:space="preserve">
<path fill="#000000" opacity="1.000000" stroke="none" 
	d="
M334.098633,547.274780 
	C309.865234,559.265564 284.874054,554.350403 266.155243,535.446472 
	C217.843170,486.656708 169.156555,438.237732 120.616264,389.673950 
	C94.931969,363.977142 69.231796,338.296204 43.555309,312.591583 
	C19.553885,288.563873 19.486736,255.875595 43.472061,231.778870 
	C88.965416,186.074219 134.365646,140.275360 180.095551,94.808296 
	C202.614532,72.418762 236.931824,72.969032 259.460876,95.481651 
	C335.617554,171.582672 411.729706,247.728226 487.864685,323.850983 
	C493.994232,329.979553 500.212616,336.021301 507.188782,341.201385 
	C517.021606,348.502563 527.249695,351.747833 538.445496,343.961945 
	C538.782349,343.727692 539.331970,343.799225 539.889771,343.711212 
	C539.963440,345.841736 538.275635,346.621002 537.188965,347.708405 
	C511.625488,373.289948 486.050690,398.860291 460.432251,424.386810 
	C447.998199,436.776276 436.425232,437.579498 422.096863,427.232849 
	C417.082550,423.611969 412.511108,419.488525 408.146027,415.122955 
	C395.419250,402.394867 382.743591,389.614868 369.916687,376.988464 
	C367.368500,374.480103 366.630859,372.281921 367.703003,368.662628 
	C376.743073,338.145691 369.676300,311.494141 347.716827,288.713715 
	C339.159576,279.836548 330.337830,271.212097 321.553772,262.556549 
	C315.313354,256.407471 311.208801,256.458374 304.899017,262.554352 
	C301.424652,265.911011 297.813385,269.154144 294.615845,272.760559 
	C291.827911,275.904968 289.736908,275.779907 286.854095,272.846558 
	C276.574951,262.387238 266.111389,252.109222 255.723236,241.756958 
	C252.949631,238.992950 249.845016,236.808075 245.830795,236.388718 
	C239.927139,235.772003 234.280884,238.855179 231.771011,243.963242 
	C228.970337,249.663132 229.914474,256.097321 234.731049,261.011536 
	C245.229843,271.723175 255.768036,282.402283 266.544006,292.832428 
	C269.723816,295.910156 269.799530,297.706512 266.495178,300.718994 
	C260.343811,306.326965 254.465683,312.264679 248.819672,318.384247 
	C246.011993,321.427399 244.231293,321.013672 241.592804,318.321838 
	C231.327393,307.848816 220.915161,297.519226 210.515808,287.178223 
	C206.593094,283.277496 202.168503,280.380066 196.268555,281.900116 
	C184.433762,284.949219 181.261642,297.668579 190.232819,307.080200 
	C199.314575,316.607788 208.825378,325.725067 218.072632,335.096680 
	C225.986481,343.116974 226.317642,341.038757 218.045563,349.360962 
	C215.108444,352.315887 212.097046,355.204254 209.285126,358.274658 
	C204.981903,362.973450 204.615158,368.107239 209.013077,372.552521 
	C220.606064,384.270508 231.356674,396.953827 244.384491,407.095825 
	C265.846405,423.803802 289.999268,427.987640 315.994171,419.852600 
	C320.470764,418.451660 323.149445,419.151489 326.442047,422.436371 
	C341.656494,437.615021 356.258087,453.425110 372.397522,467.661896 
	C375.525909,470.421448 378.902740,472.856598 382.530884,474.943085 
	C390.740173,479.664215 398.887177,480.150299 407.013763,474.751495 
	C407.805115,474.225769 408.701904,473.858826 409.983978,473.192535 
	C410.012604,475.618744 408.420807,476.465851 407.354706,477.532776 
	C387.446594,497.456879 367.507202,517.349670 347.584747,537.259399 
	C343.668213,541.173340 339.364441,544.557312 334.098633,547.274780 
z"/>
<path fill="#000000" opacity="1.000000" stroke="none" 
	d="
M398.706512,182.293518 
	C382.191559,165.786423 366.016083,149.438080 349.593018,133.342392 
	C346.239655,130.055908 346.461029,128.209976 349.697693,125.017670 
	C372.475525,102.551971 394.999176,79.828796 417.728729,57.313766 
	C431.419434,43.752270 450.810547,42.221016 464.971863,53.186275 
	C472.136139,58.733635 475.808380,66.525436 479.225281,74.541153 
	C496.342194,114.696075 511.119690,155.765732 526.862732,196.457031 
	C538.520752,226.589767 549.777405,256.877777 561.434814,287.010773 
	C564.166321,294.071320 564.013000,300.332764 558.843445,306.043793 
	C553.241760,312.232208 546.272339,314.566864 538.079590,312.754456 
	C530.331909,311.040527 524.118652,306.504730 518.458862,301.278015 
	C498.252960,282.618286 479.295349,262.685944 459.764496,243.337814 
	C439.402679,223.166428 419.219696,202.814529 398.706512,182.293518 
z"/>
</svg>