<svg width="32" height="32" viewBox="0 0 32 32" fill="none" xmlns="http://www.w3.org/2000/svg">
<g id="passkeys">
<path id="Vector" d="M17.3328 17.086C16.9 17.0292 16.4553 17 15.9995 17C11.4023 17 7.93304 19.9746 6.574 24.152C6.08992 25.64 7.34558 27 8.91033 27H18.6661M20.9995 8.66663C20.9995 11.4281 18.7608 13.6666 15.9995 13.6666C13.238 13.6666 10.9994 11.4281 10.9994 8.66663C10.9994 5.9052 13.238 3.66663 15.9995 3.66663C18.7608 3.66663 20.9995 5.9052 20.9995 8.66663ZM20.9995 18.6666C20.9995 17.0098 22.3425 15.6666 23.9995 15.6666C25.6563 15.6666 26.9995 17.0098 26.9995 18.6666C26.9995 19.7068 26.4701 20.6233 25.6661 21.1614V22.6666L24.9995 23.9141L25.6661 25.2904V26.6666L23.9995 28L22.3328 26.6666V21.1614C21.5288 20.6233 20.9995 19.7068 20.9995 18.6666Z" stroke="black" stroke-width="2" stroke-linecap="round" stroke-linejoin="round"/>
</g>
</svg>
