<svg width="24" height="24" viewBox="0 0 24 24" fill="none" xmlns="http://www.w3.org/2000/svg">
<g id="_Icon">
<path id="Vector" d="M4.75 8.25H5.75M18.25 15.75H19.25M1.75 17.75V6.25C1.75 5.69772 2.19772 5.25 2.75 5.25H21.25C21.8023 5.25 22.25 5.69772 22.25 6.25V17.75C22.25 18.3023 21.8023 18.75 21.25 18.75H2.75C2.19772 18.75 1.75 18.3023 1.75 17.75ZM14 12C14 13.1046 13.1046 14 12 14C10.8954 14 10 13.1046 10 12C10 10.8954 10.8954 10 12 10C13.1046 10 14 10.8954 14 12Z" stroke="black" stroke-width="2" stroke-linecap="round" stroke-linejoin="round"/>
</g>
</svg>
