<svg width="16" height="16" viewBox="0 0 16 16" fill="none" xmlns="http://www.w3.org/2000/svg">
<g clip-path="url(#clip0_2253_19194)">
<path d="M-2.90906 -0.181885H18.9091V7.99993H-2.90906V-0.181885Z" fill="#0038A8"/>
<path d="M-2.90906 8H18.9091V16.1818H-2.90906V8Z" fill="#CE1126"/>
<path d="M11.2625 7.99993L-2.90906 16.1818V-0.181885" fill="white"/>
<path d="M-1.99881 1.26367L-1.51131 1.69322L-0.945399 1.37958L-1.19767 1.97617L-0.720399 2.41935L-1.36813 2.36481L-1.64426 2.95117L-1.79085 2.32049L-2.43176 2.23867L-1.87608 1.89776L-1.99881 1.26367ZM9.03983 7.13754L9.05346 7.78526L9.6671 8.00004L9.05346 8.2114L9.03983 8.85913L8.64778 8.34435L8.02733 8.53185L8.39551 8.00004L8.02733 7.46822L8.64778 7.65572L9.03983 7.13754ZM-1.64085 13.0489L-1.36813 13.6353L-0.720399 13.5807L-1.19426 14.0239L-0.94199 14.6205L-1.5079 14.3103L-1.99881 14.733L-1.87608 14.0955L-2.43176 13.7614L-1.78744 13.6796L-1.64085 13.0489ZM2.25233 4.56026L2.04096 4.77163L2.14665 6.3739L2.04437 6.38413L1.85005 4.92163L1.67619 5.09208L1.93528 6.40117C1.72578 6.44241 1.5265 6.52467 1.34892 6.64322L0.609146 5.53867H0.363691L1.26369 6.70799C1.23569 6.72982 1.2084 6.75256 1.18187 6.77617L0.121646 5.56594H-0.178354V5.86594L1.02846 6.92276L0.960282 7.00799L-0.209036 6.1114V6.35344L0.898918 7.09322C0.783009 7.27049 0.697782 7.46822 0.656873 7.67958L-0.648808 7.42049L-0.822672 7.59094L0.639827 7.78526C0.633009 7.81935 0.629601 7.85685 0.629601 7.89094L-0.972672 7.78867L-1.18404 8.00004L-0.972672 8.2114L0.629601 8.10572L0.639827 8.2114L-0.822672 8.40572L-0.652218 8.57617L0.656873 8.31708C0.698107 8.52658 0.780367 8.72586 0.898918 8.90345L-0.209036 9.64322V9.88867L0.960282 8.99208C0.982116 9.02009 1.00485 9.04737 1.02846 9.0739L-0.178354 10.1307V10.4307H0.125055L1.18187 9.2239L1.2671 9.29208L0.363691 10.4614H0.609146L1.34892 9.35345C1.52278 9.46935 1.72392 9.55458 1.93528 9.59549L1.67619 10.9046L1.84665 11.075L2.04096 9.61254C2.07505 9.61935 2.10915 9.62276 2.14665 9.62276L2.04437 11.225L2.25233 11.4364L2.4671 11.225L2.36142 9.62276L2.46369 9.61254L2.65801 11.0784L2.83187 10.9046L2.57278 9.59549C2.78228 9.55426 2.98156 9.472 3.15915 9.35345L3.89892 10.4614H4.14437L3.24437 9.29208C3.27238 9.27025 3.29966 9.24751 3.32619 9.2239L4.38642 10.4307H4.68642V10.1307L3.4796 9.0739L3.54778 8.99208L4.7171 9.88867V9.64322L3.60915 8.90345C3.72505 8.72958 3.81028 8.52844 3.85119 8.31708L5.15687 8.57617L5.33074 8.40572L3.86824 8.2114C3.87505 8.17731 3.87846 8.14322 3.87846 8.10572L5.48074 8.20799L5.6921 8.00004L5.48074 7.78867L3.87846 7.89094L3.86824 7.78867L5.33074 7.59435L5.16028 7.4239L3.85119 7.67958C3.80996 7.47008 3.7277 7.2708 3.60915 7.09322L4.7171 6.35344V6.1114L3.54778 7.00799C3.52595 6.97998 3.50321 6.9527 3.4796 6.92617L4.68642 5.86935V5.56594H4.38642L3.3296 6.77617C3.30196 6.7525 3.27353 6.72976 3.24437 6.70799L4.14437 5.53867H3.89892L3.15915 6.64322C2.98528 6.52731 2.78415 6.44208 2.57278 6.40117L2.83187 5.09549L2.66142 4.92504L2.4671 6.38413L2.36142 6.3739L2.46369 4.77163L2.25233 4.56026Z" fill="#FCD116"/>
</g>
<defs>
<clipPath id="clip0_2253_19194">
<rect width="21.8182" height="16.3636" fill="white" transform="translate(-2.90906 -0.181885)"/>
</clipPath>
</defs>
</svg>
