<svg width="24" height="24" viewBox="0 0 24 24" fill="none" xmlns="http://www.w3.org/2000/svg">
<path d="M15.5449 0.965884C15.2376 0.883504 14.91 0.926632 14.6344 1.08576C14.3587 1.2449 14.1576 1.50699 14.0753 1.8144L12.2118 8.76908C12.1294 9.07649 12.1726 9.40403 12.3317 9.67971C12.4908 9.95523 12.7529 10.1563 13.0603 10.2388L20.0149 12.1023C20.3224 12.1846 20.65 12.1415 20.9256 11.9824C21.2011 11.8233 21.4023 11.5612 21.4847 11.2537L23.3482 4.29908C23.5197 3.65891 23.1399 3.0009 22.4997 2.82938L15.5449 0.965884Z" fill="#16171A"/>
<path d="M4.01613 5.26404C3.68772 4.98846 3.23722 4.90903 2.83436 5.05566C2.4315 5.20229 2.13746 5.55271 2.06301 5.97491L0.619328 14.1624C0.544892 14.5847 0.701336 15.0145 1.02975 15.2901C1.35818 15.5657 1.80866 15.6451 2.21152 15.4985L10.024 12.655C10.4268 12.5083 10.7209 12.1579 10.7953 11.7357C10.8698 11.3135 10.7134 10.8837 10.3849 10.608L4.01613 5.26404Z" fill="#16171A"/>
<path d="M14.9343 13.225C12.2834 13.225 10.1343 15.3741 10.1343 18.025C10.1343 20.6759 12.2834 22.825 14.9343 22.825C17.5853 22.825 19.7343 20.6759 19.7343 18.025C19.7343 15.3741 17.5853 13.225 14.9343 13.225Z" fill="#16171A"/>
</svg>
