<svg width="24" height="24" viewBox="0 0 24 24" fill="none" xmlns="http://www.w3.org/2000/svg">
<path fill-rule="evenodd" clip-rule="evenodd" d="M3 4C3 3.44771 3.44772 3 4 3H11C11.5523 3 12 3.44771 12 4C12 4.55228 11.5523 5 11 5H5V19H7.10002C7.56329 16.7178 9.58104 15 12 15C14.419 15 16.4367 16.7178 16.9 19H19V13C19 12.4477 19.4477 12 20 12C20.5523 12 21 12.4477 21 13V20C21 20.5523 20.5523 21 20 21H4C3.44772 21 3 20.5523 3 20V4ZM9.17071 19H14.8293C14.4175 17.8348 13.3062 17 12 17C10.6938 17 9.58254 17.8348 9.17071 19ZM12 9C11.1716 9 10.5 9.67157 10.5 10.5C10.5 11.3284 11.1716 12 12 12C12.8284 12 13.5 11.3284 13.5 10.5C13.5 9.67157 12.8284 9 12 9ZM8.5 10.5C8.5 8.567 10.067 7 12 7C13.933 7 15.5 8.567 15.5 10.5C15.5 12.433 13.933 14 12 14C10.067 14 8.5 12.433 8.5 10.5Z" fill="#16171A"/>
<path d="M18.9473 1.89444C18.7631 1.52591 18.2371 1.52591 18.0529 1.89444L17.0746 3.85094C17.0263 3.9477 16.9478 4.02616 16.851 4.07454L14.8945 5.05279C14.526 5.23706 14.526 5.76296 14.8945 5.94722L16.851 6.92547C16.9478 6.97386 17.0263 7.05232 17.0746 7.14908L18.0529 9.10558C18.2371 9.47411 18.7631 9.47411 18.9473 9.10558L19.9256 7.14908C19.9739 7.05232 20.0524 6.97386 20.1492 6.92547L22.1057 5.94722C22.4742 5.76296 22.4742 5.23706 22.1057 5.05279L20.1492 4.07454C20.0524 4.02616 19.9739 3.9477 19.9256 3.85094L18.9473 1.89444Z" fill="#16171A"/>
</svg>
