<svg width="24" height="24" viewBox="0 0 24 24" fill="none" xmlns="http://www.w3.org/2000/svg">
<path d="M9.3 5.7L6.375 5.025L5.025 6.375L5.7 9.3L3 11.1V12.9L5.7 14.7L5.025 17.625L6.375 18.975L9.3 18.3L11.1 21H12.9L14.7 18.3L17.625 18.975L18.975 17.625L18.3 14.7L21 12.9V11.1L18.3 9.3L18.975 6.375L17.625 5.025L14.7 5.7L12.9 3H11.1L9.3 5.7Z" stroke="black" stroke-width="2" stroke-linejoin="round"/>
<path d="M15 12C15 13.6569 13.6569 15 12 15C10.3431 15 9 13.6569 9 12C9 10.3431 10.3431 9 12 9C13.6569 9 15 10.3431 15 12Z" stroke="black" stroke-width="2" stroke-linejoin="round"/>
</svg>
