<svg width="17" height="21" viewBox="0 0 17 21" fill="none" xmlns="http://www.w3.org/2000/svg">
<path d="M3.18823 20.9795C2.23901 20.9795 1.52124 20.7393 1.03491 20.2588C0.548584 19.7783 0.30542 19.0664 0.30542 18.123V9.47461C0.30542 8.53711 0.548584 7.82812 1.03491 7.34766C1.52124 6.86133 2.23901 6.61816 3.18823 6.61816H5.73706V8.34961H3.2937C2.88354 8.34961 2.57007 8.45801 2.35327 8.6748C2.14233 8.88574 2.03687 9.20508 2.03687 9.63281V17.9736C2.03687 18.4014 2.14233 18.7207 2.35327 18.9316C2.57007 19.1484 2.88354 19.2568 3.2937 19.2568H13.199C13.6033 19.2568 13.9138 19.1484 14.1306 18.9316C14.3533 18.7207 14.4646 18.4014 14.4646 17.9736V9.63281C14.4646 9.20508 14.3533 8.88574 14.1306 8.6748C13.9138 8.45801 13.6033 8.34961 13.199 8.34961H10.7644V6.61816H13.3132C14.2625 6.61816 14.9802 6.86133 15.4666 7.34766C15.9529 7.82812 16.196 8.53711 16.196 9.47461V18.123C16.196 19.0605 15.9529 19.7695 15.4666 20.25C14.9802 20.7363 14.2625 20.9795 13.3132 20.9795H3.18823ZM8.25073 13.9746C8.02808 13.9746 7.83472 13.8955 7.67065 13.7373C7.51245 13.5791 7.43335 13.3916 7.43335 13.1748V4.32422L7.50366 3.01465L6.94995 3.65625L5.71948 4.97461C5.57886 5.13281 5.39722 5.21191 5.17456 5.21191C4.96948 5.21191 4.79663 5.14746 4.65601 5.01855C4.52124 4.88379 4.45386 4.71387 4.45386 4.50879C4.45386 4.32129 4.5271 4.14844 4.67358 3.99023L7.62671 1.15137C7.73804 1.0459 7.84351 0.972656 7.94312 0.931641C8.04272 0.890625 8.14526 0.870117 8.25073 0.870117C8.3562 0.870117 8.45874 0.890625 8.55835 0.931641C8.65796 0.972656 8.7605 1.0459 8.86597 1.15137L11.8191 3.99023C11.9714 4.14844 12.0476 4.32129 12.0476 4.50879C12.0476 4.71387 11.9744 4.88379 11.8279 5.01855C11.6873 5.14746 11.5173 5.21191 11.3181 5.21191C11.1013 5.21191 10.9197 5.13281 10.7732 4.97461L9.54272 3.65625L8.9978 3.01465L9.06812 4.32422V13.1748C9.06812 13.3916 8.98608 13.5791 8.82202 13.7373C8.66382 13.8955 8.47339 13.9746 8.25073 13.9746Z" fill="#007BFE"/>
</svg>
