<svg width="24" height="24" viewBox="0 0 24 24" fill="none" xmlns="http://www.w3.org/2000/svg">
<path d="M2 12.0001L1.11178 11.5406C0.96274 11.8288 0.96274 12.1713 1.11178 12.4595L2 12.0001ZM22 11.9999L22.8882 12.4594C23.0373 12.1712 23.0373 11.8287 22.8882 11.5405L22 11.9999ZM2.88822 12.4595C5.16609 8.05547 8.65289 6.00002 12 6C15.3471 5.99998 18.8339 8.05537 21.1118 12.4594L22.8882 11.5405C20.3386 6.61119 16.2391 3.99997 12 4C7.76084 4.00003 3.66136 6.6113 1.11178 11.5406L2.88822 12.4595ZM1.11178 12.4595C3.66137 17.3888 7.76085 20 12 20C16.2392 20 20.3386 17.3887 22.8882 12.4594L21.1118 11.5405C18.8339 15.9445 15.3471 18 12 18C8.65288 18 5.16609 15.9446 2.88822 11.5406L1.11178 12.4595ZM14 12C14 13.1046 13.1046 14 12 14V16C14.2091 16 16 14.2091 16 12H14ZM12 14C10.8954 14 10 13.1046 10 12H8C8 14.2091 9.79086 16 12 16V14ZM10 12C10 10.8954 10.8954 10 12 10V8C9.79086 8 8 9.79086 8 12H10ZM12 10C13.1046 10 14 10.8954 14 12H16C16 9.79086 14.2091 8 12 8V10Z" fill="#16171A"/>
</svg>
