<svg width="24" height="24" viewBox="0 0 24 24" fill="none" xmlns="http://www.w3.org/2000/svg">
<g id="Icon">
<path id="Vector" fill-rule="evenodd" clip-rule="evenodd" d="M2 12C2 6.47715 6.47715 2 12 2C17.5228 2 22 6.47715 22 12C22 17.5228 17.5228 22 12 22C6.47715 22 2 17.5228 2 12ZM15.387 9.81662C15.5618 9.6029 15.5303 9.28789 15.3166 9.11302C15.1029 8.93816 14.7879 8.96966 14.613 9.18338L10.4629 14.2558L8.85355 12.6464C8.65829 12.4512 8.34171 12.4512 8.14645 12.6464C7.95118 12.8417 7.95118 13.1583 8.14645 13.3536L10.1464 15.3536C10.2463 15.4534 10.3838 15.5064 10.5249 15.4994C10.666 15.4923 10.7975 15.426 10.887 15.3166L15.387 9.81662Z" fill="white"/>
</g>
</svg>
