<svg width="42" height="18" viewBox="0 0 42 18" fill="none" xmlns="http://www.w3.org/2000/svg">
<path d="M8.71096 13.2534C8.07839 13.2534 7.56286 13.147 7.16439 12.9342C6.76592 12.7213 6.45461 12.4515 6.23047 12.1248C6.01131 11.7981 5.85442 11.459 5.75978 11.1076C5.66514 10.7512 5.60786 10.4269 5.58794 10.1349C5.56801 9.84282 5.55805 9.62997 5.55805 9.49631V4.99667H7.62014V8.7835C7.62014 8.96665 7.63011 9.20178 7.65003 9.48889C7.66995 9.77104 7.73221 10.0557 7.83681 10.3428C7.94141 10.6299 8.11076 10.87 8.34486 11.063C8.58395 11.2561 8.92016 11.3526 9.35349 11.3526C9.52783 11.3526 9.71461 11.3254 9.91384 11.2709C10.1131 11.2165 10.2999 11.1125 10.4742 10.9591C10.6485 10.8007 10.7905 10.5705 10.9001 10.2685C11.0146 9.96162 11.0719 9.56066 11.0719 9.06565V4.99667H13.1191V13.0158H11.3259V12.1889C11.1384 12.3965 10.9218 12.5806 10.6759 12.7411C10.1579 13.0827 9.50292 13.2534 8.71096 13.2534Z" fill="#16171A"/>
<path d="M24.92 8.27858V13.0158H26.9522V7.74397C26.9522 6.8678 26.7156 6.15994 26.2424 5.62037C25.7742 5.07586 25.0793 4.80361 24.1579 4.80361C23.6199 4.80361 23.1293 4.92241 22.686 5.16002C22.2802 5.37544 21.949 5.6715 21.6927 6.0482C21.5015 5.70633 21.2374 5.42512 20.9004 5.20457C20.4969 4.93726 19.9789 4.80361 19.3463 4.80361C18.7935 4.80361 18.2929 4.92489 17.8446 5.16744C17.5058 5.35279 17.2194 5.58873 16.9854 5.87526V4.99666H15.1923V13.0158H17.2394V8.15978C17.2394 7.69942 17.3664 7.32569 17.6205 7.03858C17.8795 6.74652 18.2207 6.6005 18.644 6.6005C19.0873 6.6005 19.4335 6.749 19.6825 7.046C19.9366 7.33806 20.0636 7.74892 20.0636 8.27858V13.0158H22.0958V8.15978C22.0958 7.85287 22.1531 7.58309 22.2676 7.35044C22.3872 7.11283 22.5515 6.92968 22.7607 6.80097C22.9699 6.66732 23.2165 6.6005 23.5004 6.6005C23.9437 6.6005 24.2899 6.749 24.5389 7.046C24.7929 7.33806 24.92 7.74892 24.92 8.27858Z" fill="#16171A"/>
<path fill-rule="evenodd" clip-rule="evenodd" d="M29.6646 12.9121C30.0681 13.1299 30.5587 13.2388 31.1365 13.2388C31.8338 13.2388 32.4091 13.12 32.8624 12.8824C33.2237 12.6912 33.5649 12.4076 33.8859 12.0317V13.0161H35.6641V8.11547C35.6641 7.74916 35.6492 7.4175 35.6193 7.1205C35.5894 6.82349 35.4948 6.52649 35.3354 6.22948C35.0515 5.69487 34.6331 5.31866 34.0802 5.10086C33.5273 4.88305 32.8947 4.77415 32.1825 4.77415C31.2112 4.77415 30.4441 4.98205 29.8813 5.39786C29.3184 5.81367 28.9349 6.35323 28.7307 7.01655L30.5687 7.59571C30.6982 7.2294 30.9248 6.97447 31.2485 6.83092C31.5723 6.68736 31.8836 6.61559 32.1825 6.61559C32.7204 6.61559 33.1039 6.72697 33.333 6.94972C33.5246 7.13596 33.6361 7.41043 33.6675 7.77314C33.4176 7.91517 33.1404 8.01728 32.7802 8.08096C32.3134 8.16346 31.9194 8.22575 31.6073 8.2751C31.4571 8.29885 31.3258 8.3196 31.2143 8.3382C30.8712 8.39543 30.3328 8.52077 30.0442 8.60772C29.7557 8.69466 29.3992 8.85799 29.1402 9.09559C28.8862 9.32825 28.706 9.60447 28.5914 9.91138C28.4769 10.2183 28.4468 10.4321 28.4468 10.8034C28.4468 11.2489 28.5489 11.6573 28.7531 12.0285C28.9623 12.3948 29.2661 12.6894 29.6646 12.9121ZM31.5698 11.6498C31.9434 11.6498 32.2572 11.5855 32.5112 11.4568C32.7702 11.3231 32.9744 11.1722 33.1238 11.0039C33.2783 10.8356 33.3829 10.6945 33.4376 10.5806C33.5422 10.3628 33.602 10.1104 33.617 9.82325C33.63 9.632 33.6388 9.46198 33.6433 9.31318C33.3134 9.39764 33.0232 9.45147 32.7901 9.49471L32.7802 9.49655C32.4066 9.5609 32.1053 9.6203 31.8761 9.67475C31.647 9.7292 31.4453 9.7886 31.271 9.85296C31.0717 9.93216 30.9098 10.0188 30.7853 10.1128C30.6658 10.2019 30.5761 10.3009 30.5164 10.4098C30.4616 10.5187 30.4342 10.64 30.4342 10.7737C30.4342 10.9568 30.479 11.1152 30.5687 11.2489C30.6633 11.3776 30.7953 11.4766 30.9646 11.5459C31.134 11.6152 31.3357 11.6498 31.5698 11.6498Z" fill="#16171A"/>
<path d="M0.9 7.61664C0.9 6.26861 0.900709 5.31206 0.962236 4.56366C1.02289 3.82593 1.13807 3.37032 1.32297 3.00967C1.69517 2.2837 2.28962 1.69244 3.02206 1.32155C3.38687 1.13682 3.84738 1.02204 4.59093 0.961662C5.34482 0.900447 6.30813 0.899756 7.66426 0.899756H33.4956C34.8518 0.899756 35.8151 0.900447 36.569 0.961662C37.3125 1.02204 37.773 1.13682 38.1378 1.32155C38.8703 1.69244 39.4647 2.2837 39.8369 3.00967C40.0218 3.37032 40.137 3.82593 40.1977 4.56366C40.2592 5.31206 40.2599 6.26861 40.2599 7.61664V10.3829C40.2599 11.7309 40.2592 12.6875 40.1977 13.4359C40.137 14.1736 40.0218 14.6292 39.8369 14.9898C39.4647 15.7158 38.8703 16.3071 38.1378 16.678C37.773 16.8627 37.3125 16.9775 36.569 17.0378C35.8151 17.0991 34.8518 17.0998 33.4956 17.0998H7.66426C6.30813 17.0998 5.34482 17.0991 4.59093 17.0378C3.84738 16.9775 3.38687 16.8627 3.02206 16.678C2.28962 16.3071 1.69517 15.7158 1.32297 14.9898C1.13807 14.6292 1.02289 14.1736 0.962236 13.4359C0.900709 12.6875 0.9 11.7309 0.9 10.3829V7.61664Z" stroke="#16171A" stroke-width="1.8"/>
</svg>
