<svg width="24" height="24" viewBox="0 0 24 24" fill="none" xmlns="http://www.w3.org/2000/svg">
<path d="M18.3676 13.5532C18.5852 13.5532 18.768 13.5155 18.9159 13.44C19.0668 13.3617 19.1857 13.2732 19.2728 13.1746C19.3627 13.0759 19.4236 12.9932 19.4555 12.9265C19.5165 12.7989 19.5513 12.6509 19.56 12.4826C19.5676 12.3706 19.5727 12.2709 19.5753 12.1837C19.3832 12.2332 19.2141 12.2647 19.0783 12.2901L19.0726 12.2912C18.855 12.3289 18.6795 12.3637 18.546 12.3956C18.4126 12.4275 18.2951 12.4623 18.1935 12.5001C18.0775 12.5465 17.9832 12.5972 17.9107 12.6524C17.841 12.7046 17.7888 12.7626 17.754 12.8264C17.7221 12.8903 17.7061 12.9613 17.7061 13.0397C17.7061 13.147 17.7322 13.2398 17.7845 13.3182C17.8396 13.3936 17.9165 13.4516 18.0151 13.4922C18.1137 13.5329 18.2312 13.5532 18.3676 13.5532Z" fill="#16171A"/>
<path fill-rule="evenodd" clip-rule="evenodd" d="M0.304099 8.24868C0 8.84551 0 9.6268 0 11.1894V12.8106C0 14.3732 0 15.1545 0.304099 15.7513C0.571592 16.2763 0.998418 16.7031 1.5234 16.9706C2.12023 17.2747 2.90152 17.2747 4.46411 17.2747H19.5098C21.0724 17.2747 21.8537 17.2747 22.4505 16.9706C22.9755 16.7031 23.4023 16.2763 23.6698 15.7513C23.9739 15.1545 23.9739 14.3732 23.9739 12.8106V11.1894C23.9739 9.6268 23.9739 8.84551 23.6698 8.24868C23.4023 7.7237 22.9755 7.29687 22.4505 7.02938C21.8537 6.72528 21.0724 6.72528 19.5098 6.72528H4.46411C2.90152 6.72528 2.12023 6.72528 1.5234 7.02938C0.998418 7.29687 0.571592 7.7237 0.304099 8.24868ZM18.1152 14.4844C17.7787 14.4844 17.4929 14.4206 17.2579 14.293C17.0258 14.1624 16.8488 13.9898 16.727 13.7751C16.608 13.5575 16.5486 13.3182 16.5486 13.0571C16.5486 12.8395 16.5661 12.7142 16.6328 12.5343C16.6995 12.3544 16.8045 12.1925 16.9524 12.0562C17.1033 11.9169 17.3109 11.8212 17.479 11.7702C17.6471 11.7193 17.9607 11.6458 18.1606 11.6123C18.2255 11.6014 18.3019 11.5892 18.3894 11.5753L18.3895 11.5753L18.3896 11.5753C18.5714 11.5464 18.8007 11.5099 19.0726 11.4615C19.2824 11.4242 19.4439 11.3644 19.5894 11.2811C19.5711 11.0685 19.5062 10.9077 19.3946 10.7985C19.2612 10.668 19.0378 10.6027 18.7244 10.6027C18.5504 10.6027 18.369 10.6448 18.1805 10.7289C17.9919 10.813 17.8599 10.9624 17.7845 11.1771L16.7139 10.8377C16.8329 10.4489 17.0563 10.1327 17.3841 9.88901C17.7119 9.64531 18.1587 9.52346 18.7244 9.52346C19.1393 9.52346 19.5078 9.58729 19.8298 9.71494C20.1518 9.84259 20.3955 10.0631 20.5609 10.3764C20.6537 10.5505 20.7088 10.7245 20.7262 10.8986C20.7436 11.0727 20.7523 11.2671 20.7523 11.4817V14.3539H19.7166V13.777C19.5296 13.9973 19.3309 14.1635 19.1204 14.2756C18.8564 14.4148 18.5214 14.4844 18.1152 14.4844ZM14.4943 14.3537V11.5773C14.4943 11.2669 14.4204 11.0261 14.2724 10.855C14.1273 10.6809 13.9257 10.5938 13.6675 10.5938C13.5021 10.5938 13.3585 10.633 13.2367 10.7113C13.1148 10.7868 13.0191 10.8941 12.9495 11.0334C12.8827 11.1697 12.8494 11.3278 12.8494 11.5077V14.3537H11.6657V11.5773C11.6657 11.2669 11.5917 11.0261 11.4438 10.855C11.2987 10.6809 11.0971 10.5938 10.8389 10.5938C10.5923 10.5938 10.3935 10.6794 10.2427 10.8506C10.0947 11.0189 10.0208 11.2379 10.0208 11.5077V14.3537H8.82837V9.65387H9.87279V10.1688C10.0091 10.0009 10.1759 9.86259 10.3732 9.75396C10.6343 9.6118 10.9259 9.54073 11.2479 9.54073C11.6164 9.54073 11.9181 9.61906 12.1531 9.77572C12.3494 9.90498 12.5032 10.0698 12.6146 10.2702C12.7639 10.0494 12.9568 9.87587 13.1932 9.74961C13.4514 9.61035 13.7371 9.54073 14.0505 9.54073C14.5872 9.54073 14.9919 9.70029 15.2646 10.0194C15.5402 10.3356 15.678 10.7505 15.678 11.264V14.3537H14.4943ZM4.15248 14.3059C4.38457 14.4306 4.68484 14.493 5.05329 14.493C5.51457 14.493 5.89607 14.3929 6.19779 14.1927C6.34098 14.0986 6.46718 13.9908 6.5764 13.8691V14.3538H7.62081V9.65387H6.42844V12.0386C6.42844 12.3287 6.39507 12.5637 6.32835 12.7436C6.26452 12.9206 6.18184 13.0555 6.0803 13.1483C5.97876 13.2383 5.86996 13.2992 5.75392 13.3311C5.63787 13.363 5.52908 13.379 5.42754 13.379C5.17513 13.379 4.97931 13.3224 4.84005 13.2092C4.7037 13.0961 4.60506 12.9554 4.54413 12.7871C4.48321 12.6189 4.44694 12.452 4.43534 12.2867C4.42373 12.1184 4.41793 11.9806 4.41793 11.8733V9.65387H3.21685V12.291C3.21685 12.3694 3.22265 12.4941 3.23426 12.6653C3.24586 12.8364 3.27923 13.0265 3.33435 13.2354C3.38947 13.4413 3.48086 13.6401 3.60851 13.8315C3.73906 14.023 3.92038 14.1811 4.15248 14.3059Z" fill="#16171A"/>
</svg>
