<svg width="16" height="16" viewBox="0 0 16 16" fill="none" xmlns="http://www.w3.org/2000/svg">
<g clip-path="url(#clip0_2253_17247)">
<path fill-rule="evenodd" clip-rule="evenodd" d="M-2.90906 -0.181641H28.1818V1.07972H-2.90906V-0.181641ZM-2.90906 2.33768H28.1818V3.59904H-2.90906V2.33768ZM-2.90906 4.85359H28.1818V6.11495H-2.90906V4.85359ZM-2.90906 7.3695H28.1818V8.63086H-2.90906V7.3695ZM-2.90906 9.89222H28.1818V11.1468H-2.90906V9.89222ZM-2.90906 12.4047H28.1818V13.6661H-2.90906V12.4047ZM-2.90906 14.9206H28.1818V16.182H-2.90906V14.9206Z" fill="#BD3D44"/>
<path fill-rule="evenodd" clip-rule="evenodd" d="M-2.90906 1.07959H28.1818V2.33754H-2.90906V1.07959ZM-2.90906 3.5955H28.1818V4.85345H-2.90906V3.5955ZM-2.90906 6.11141H28.1818V7.37277H-2.90906V6.11141ZM-2.90906 8.63073H28.1818V9.89209H-2.90906V8.63073ZM-2.90906 11.1466H28.1818V12.408H-2.90906V11.1466ZM-2.90906 13.6625H28.1818V14.9239H-2.90906V13.6625Z" fill="white"/>
<path fill-rule="evenodd" clip-rule="evenodd" d="M-2.90906 -0.181641H9.5273V8.63086H-2.90906V-0.181641Z" fill="#192F5D"/>
<path fill-rule="evenodd" clip-rule="evenodd" d="M-1.87271 0.193359L-1.7568 0.544496H-1.39544L-1.68862 0.759269L-1.57612 1.1104L-1.87271 0.892223L-2.16589 1.107L-2.0568 0.759269L-2.35339 0.544496H-1.9818L-1.87271 0.193359ZM0.200015 0.193359L0.312515 0.544496H0.680697L0.384106 0.759269L0.493197 1.1104L0.200015 0.892223L-0.096576 1.107L0.0159242 0.759269L-0.277258 0.544496H0.084106L0.200015 0.193359ZM2.27274 0.193359L2.38524 0.544496H2.75001L2.45683 0.759269L2.56933 1.1104L2.27274 0.892223L1.97615 1.107L2.08865 0.759269L1.79206 0.544496H2.16024L2.27274 0.193359ZM4.34547 0.193359L4.45797 0.544496H4.82615L4.52956 0.759269L4.64206 1.1104L4.34547 0.892223L4.04888 1.107L4.16479 0.759269L3.86479 0.544496H4.22956L4.34547 0.193359ZM6.4182 0.193359L6.5307 0.544496H6.89547L6.60229 0.759269L6.71479 1.1104L6.4182 0.892223L6.1216 1.107L6.23411 0.759269L5.94092 0.544496H6.3057L6.4182 0.193359ZM8.49092 0.193359L8.60342 0.544496H8.9716L8.67161 0.759269L8.78751 1.1104L8.49092 0.892223L8.19433 1.107L8.31024 0.759269L8.01024 0.544496H8.37842L8.49092 0.193359ZM-0.836348 1.07972L-0.723848 1.42745H-0.352257L-0.648848 1.63881L-0.539757 1.98995L-0.82953 1.77518L-1.12612 1.98995L-1.02044 1.63881L-1.3068 1.42745H-0.94203L-0.836348 1.07972ZM1.23638 1.07972L1.35229 1.42745H1.71706L1.41706 1.63881L1.53297 1.98995L1.23638 1.77518L0.939788 1.98995L1.05229 1.63881L0.755697 1.42745H1.12388L1.23638 1.07972ZM3.3091 1.07972L3.42161 1.42745H3.78979L3.4932 1.63881L3.6057 1.98995L3.3091 1.77518L3.01251 1.98995L3.12501 1.63881L2.83183 1.42745H3.1932L3.3091 1.07972ZM5.38183 1.07972L5.49774 1.42745H5.86251L5.56251 1.63881L5.67842 1.98995L5.38183 1.77518L5.08865 1.98995L5.19774 1.63881L4.90115 1.42745H5.27274L5.38183 1.07972ZM7.45456 1.07972L7.56706 1.42745H7.93524L7.63865 1.63881L7.75115 1.98995L7.45456 1.77518L7.15797 1.98995L7.27047 1.63881L6.97729 1.42745H7.34206L7.45456 1.07972ZM-1.87271 1.95245L-1.7568 2.307H-1.39544L-1.68862 2.52177L-1.57612 2.8695L-1.87271 2.65472L-2.16589 2.8695L-2.0568 2.52177L-2.35339 2.307H-1.9818L-1.87271 1.95245ZM0.200015 1.95245L0.312515 2.307H0.680697L0.384106 2.52177L0.493197 2.8695L0.200015 2.65472L-0.096576 2.8695L0.0159242 2.51836L-0.277258 2.30359H0.084106L0.200015 1.95245ZM2.27274 1.95245L2.38524 2.30359H2.75001L2.45683 2.51836L2.56933 2.86609L2.27274 2.65131L1.97615 2.86609L2.08865 2.51495L1.79206 2.30018H2.16024L2.27274 1.95245ZM4.34547 1.95245L4.45797 2.30359H4.82615L4.52956 2.51836L4.64206 2.86609L4.34547 2.65131L4.04888 2.86609L4.16479 2.51495L3.86479 2.30018H4.22956L4.34547 1.95245ZM6.4182 1.95245L6.5307 2.30359H6.89547L6.60229 2.51836L6.71479 2.86609L6.4182 2.65131L6.1216 2.86609L6.23411 2.51495L5.94092 2.30018H6.3057L6.4182 1.95245ZM8.49092 1.95245L8.60342 2.30359H8.9716L8.67161 2.51836L8.78751 2.86609L8.49092 2.65131L8.19433 2.86609L8.31024 2.51495L8.01024 2.30018H8.37842L8.49092 1.95245ZM-0.836348 2.83881L-0.723848 3.18654H-0.352257L-0.648848 3.40131L-0.536348 3.75245L-0.832939 3.53427L-1.12953 3.74904L-1.01703 3.40131L-1.31021 3.18654H-0.945439L-0.836348 2.83881ZM1.23638 2.83881L1.35229 3.18654H1.71706L1.41706 3.40131L1.53297 3.75245L1.23638 3.53427L0.939788 3.74904L1.05229 3.40131L0.755697 3.18654H1.12388L1.23638 2.83881ZM3.3091 2.83881L3.42161 3.18654H3.78979L3.4932 3.40131L3.6057 3.75245L3.3091 3.53427L3.01251 3.74904L3.12501 3.40131L2.83183 3.18654H3.1932L3.3091 2.83881ZM5.38183 2.83881L5.49774 3.18654H5.86251L5.56592 3.40131L5.67842 3.75245L5.38183 3.53427L5.08865 3.74904L5.19774 3.40131L4.90115 3.18654H5.27274L5.38183 2.83881ZM7.45456 2.83881L7.56706 3.18654H7.93524L7.63865 3.40131L7.75115 3.75245L7.45456 3.53427L7.15797 3.74904L7.27047 3.40131L6.97729 3.18654H7.34206L7.45456 2.83881ZM-1.87271 3.72177L-1.7568 4.0695H-1.39544L-1.68862 4.28427L-1.57612 4.63541L-1.87271 4.41722L-2.16589 4.632L-2.0568 4.28427L-2.35339 4.0695H-1.9818L-1.87271 3.72177ZM0.200015 3.72177L0.312515 4.0695H0.680697L0.384106 4.28427L0.493197 4.632L0.200015 4.41722L-0.096576 4.632L0.0159242 4.28427L-0.277258 4.0695H0.084106L0.200015 3.72177ZM2.27274 3.72177L2.38524 4.0695H2.75001L2.45683 4.28427L2.56933 4.63541L2.27274 4.41722L1.97615 4.632L2.08865 4.28427L1.79206 4.0695H2.16024L2.27274 3.72177ZM4.34547 3.72177L4.45797 4.0695H4.82615L4.52956 4.28427L4.64206 4.63541L4.34547 4.41722L4.04888 4.632L4.16479 4.28427L3.86479 4.0695H4.22956L4.34547 3.72177ZM6.4182 3.72177L6.5307 4.0695H6.89547L6.60229 4.28427L6.71479 4.63541L6.4182 4.41722L6.1216 4.632L6.23411 4.28427L5.94092 4.0695H6.3057L6.4182 3.72177ZM8.49092 3.72177L8.60342 4.0695H8.9716L8.67161 4.28427L8.78751 4.63541L8.49092 4.41722L8.19433 4.632L8.30683 4.28427L8.00683 4.0695H8.37501L8.49092 3.72177ZM-0.836348 4.60131L-0.723848 4.95245H-0.352257L-0.648848 5.16381L-0.536348 5.51495L-0.832939 5.29677L-1.12953 5.51495L-1.01703 5.16381L-1.31021 4.94904H-0.945439L-0.836348 4.60131ZM1.23638 4.60131L1.35229 4.95245H1.71706L1.41706 5.16381L1.53297 5.51495L1.23638 5.29677L0.939788 5.51495L1.05229 5.16381L0.755697 4.94904H1.12388L1.23638 4.60131ZM3.3091 4.60131L3.42161 4.95245H3.78979L3.4932 5.16381L3.6057 5.51495L3.3091 5.29677L3.01251 5.51495L3.12501 5.16381L2.83183 4.94904H3.1932L3.3091 4.60131ZM5.38183 4.60131L5.49774 4.95245H5.86251L5.56592 5.16381L5.67842 5.51495L5.38183 5.29677L5.08865 5.51495L5.19774 5.16381L4.90115 4.94904H5.27274L5.38183 4.60131ZM7.45456 4.60131L7.56706 4.95245H7.93524L7.63865 5.16381L7.75115 5.51495L7.45456 5.29677L7.15797 5.51495L7.27047 5.16381L6.97729 4.94904H7.34206L7.45456 4.60131ZM-1.87271 5.48086L-1.7568 5.832H-1.39544L-1.68862 6.04677L-1.57612 6.39109L-1.87271 6.17972L-2.16589 6.39109L-2.0568 6.04336L-2.35339 5.82859H-1.9818L-1.87271 5.48086ZM0.200015 5.48086L0.312515 5.832H0.680697L0.384106 6.04677L0.496606 6.39109L0.200015 6.17972L-0.096576 6.39109L0.0193334 6.04336L-0.277258 5.82859H0.084106L0.200015 5.48086ZM2.27274 5.48086L2.38524 5.832H2.75001L2.45683 6.04677L2.56933 6.39109L2.27274 6.17972L1.97615 6.39109L2.08865 6.04336L1.79206 5.82859H2.16024L2.27274 5.48086ZM4.34547 5.48086L4.45797 5.832H4.82615L4.52956 6.04677L4.64206 6.39109L4.34547 6.17972L4.04888 6.39109L4.16479 6.04336L3.86479 5.82859H4.22956L4.34547 5.48086ZM6.4182 5.48086L6.5307 5.832H6.89547L6.60229 6.04677L6.71479 6.39109L6.4182 6.17972L6.1216 6.39109L6.23411 6.04336L5.94092 5.82859H6.3057L6.4182 5.48086ZM8.49092 5.48086L8.60342 5.832H8.9716L8.67161 6.04677L8.78751 6.39109L8.49092 6.17972L8.19433 6.39109L8.31024 6.04336L8.01024 5.82859H8.37842L8.49092 5.48086ZM-0.836348 6.36381L-0.723848 6.71154H-0.352257L-0.648848 6.92631L-0.536348 7.27745L-0.832939 7.05927L-1.12953 7.27404L-1.01703 6.92631L-1.31021 6.71154H-0.945439L-0.836348 6.36381ZM1.23638 6.36381L1.35229 6.71154H1.71706L1.41706 6.92631L1.53297 7.27745L1.23638 7.05927L0.939788 7.27404L1.05229 6.92631L0.755697 6.71154H1.12388L1.23638 6.36381ZM3.3091 6.36381L3.42161 6.71154H3.78979L3.4932 6.92631L3.6057 7.27745L3.3091 7.05927L3.01251 7.27404L3.12501 6.92631L2.83183 6.71154H3.1932L3.3091 6.36381ZM5.38183 6.36381L5.49774 6.71154H5.86251L5.56592 6.92631L5.67842 7.27745L5.38183 7.05927L5.08865 7.27404L5.19774 6.92631L4.90115 6.71154H5.27274L5.38183 6.36381ZM7.45456 6.36381L7.56706 6.71154H7.93524L7.63865 6.92631L7.75115 7.27745L7.45456 7.05927L7.15797 7.27404L7.27047 6.92631L6.97729 6.71154H7.34206L7.45456 6.36381ZM-1.87271 7.24677L-1.7568 7.5945H-1.39544L-1.68862 7.80927L-1.57612 8.157L-1.87271 7.94222L-2.16589 8.157L-2.0568 7.80586L-2.35339 7.59109H-1.9818L-1.87271 7.24677ZM0.200015 7.24677L0.312515 7.5945H0.680697L0.384106 7.80927L0.496606 8.157L0.200015 7.94222L-0.096576 8.157L0.0193334 7.80586L-0.277258 7.59109H0.084106L0.200015 7.24677ZM2.27274 7.24677L2.38524 7.5945H2.75001L2.46365 7.80927L2.57615 8.157L2.27956 7.94222L1.98297 8.157L2.09547 7.80586L1.79888 7.59109H2.16706L2.27274 7.24677ZM4.34547 7.24677L4.45797 7.5945H4.82615L4.52956 7.80927L4.64206 8.157L4.34547 7.94222L4.04888 8.157L4.16479 7.80586L3.86479 7.59109H4.22956L4.34547 7.24677ZM6.4182 7.24677L6.5307 7.5945H6.89547L6.60229 7.80927L6.71479 8.157L6.4182 7.94222L6.1216 8.157L6.23411 7.80586L5.94092 7.59109H6.3057L6.4182 7.24677ZM8.49092 7.24677L8.60342 7.5945H8.9716L8.67161 7.80927L8.78751 8.157L8.49092 7.94222L8.19433 8.157L8.31024 7.80586L8.01024 7.59109H8.37842L8.49092 7.24677Z" fill="white"/>
</g>
<defs>
<clipPath id="clip0_2253_17247">
<rect width="21.8182" height="16.3636" fill="white" transform="translate(-2.90906 -0.181641)"/>
</clipPath>
</defs>
</svg>
