<svg width="48" height="48" viewBox="0 0 48 48" fill="none" xmlns="http://www.w3.org/2000/svg">
<g clip-path="url(#clip0_559_3395)">
<path fill-rule="evenodd" clip-rule="evenodd" d="M24 48C37.2547 48 48 37.2547 48 24C48 10.7452 37.2547 0 24 0C10.7452 0 0 10.7452 0 24C0 37.2547 10.7452 48 24 48ZM31.2 19.2C31.2 23.1766 27.9766 26.4 24 26.4C20.0234 26.4 16.8 23.1766 16.8 19.2C16.8 15.2236 20.0234 12 24 12C27.9766 12 31.2 15.2236 31.2 19.2ZM24.0005 43.2C18.6283 43.2 13.7715 40.9937 10.2867 37.4378C13.4829 33.612 18.2518 31.2 24.0005 31.2C29.7492 31.2 34.518 33.612 37.7143 37.4378C34.2295 40.9937 29.3726 43.2 24.0005 43.2Z" fill="#EBEEF2"/>
</g>
<defs>
<clipPath id="clip0_559_3395">
<rect width="48" height="48" rx="24" fill="white"/>
</clipPath>
</defs>
</svg>
