<svg width="22" height="18" viewBox="0 0 22 18" fill="none" xmlns="http://www.w3.org/2000/svg">
<path id="Vector" fill-rule="evenodd" clip-rule="evenodd" d="M11 0C11.3529 0 11.6797 0.18601 11.8599 0.48946L21.3599 16.4895C21.5434 16.7985 21.5469 17.1823 21.3691 17.4947C21.1912 17.8071 20.8594 18 20.5 18H1.5C1.14055 18 0.808759 17.8071 0.630939 17.4947C0.453119 17.1823 0.456629 16.7985 0.640149 16.4895L10.1401 0.48946C10.3203 0.18601 10.6471 0 11 0ZM11 7C11.5523 7 12 7.44771 12 8V10C12 10.5523 11.5523 11 11 11C10.4477 11 10 10.5523 10 10V8C10 7.44771 10.4477 7 11 7ZM9.75 13C9.75 12.3096 10.3096 11.75 11 11.75C11.6904 11.75 12.25 12.3096 12.25 13C12.25 13.6904 11.6904 14.25 11 14.25C10.3096 14.25 9.75 13.6904 9.75 13Z" fill="white"/>
</svg>
