<svg width="192" height="192" viewBox="0 0 192 192" fill="none" xmlns="http://www.w3.org/2000/svg">
<rect width="192" height="192" rx="41.1429" fill="url(#paint0_linear_1415_11631)"/>
<g clip-path="url(#clip0_1415_11631)">
<path opacity="0.3" fill-rule="evenodd" clip-rule="evenodd" d="M170.558 170.558L178.286 178.286L177.68 178.892L170.477 171.689V178.286H169.62V170.832L169.346 170.558H142.687V178.286H141.83V170.558H126.598C117.413 174.332 107.377 176.457 96.8572 176.567V178.286H96.0001L96 176.571C85.1683 176.571 74.8359 174.434 65.4015 170.558H50.1541V178.286H49.297V170.558H22.6541L22.1538 171.058V178.286H21.2967V171.916L14.3203 178.892L13.7143 178.286L21.2967 170.703V170.558H13.7142V169.701H21.2967V126.243C17.6138 117.154 15.5412 107.241 15.433 96.8572H13.7142V96.0001L15.4285 96.0001C15.4285 85.3045 17.5126 75.0957 21.2967 65.7575V22.509L21.1354 22.3477H13.7142V21.4906H20.2783L13.1082 14.3204L13.7142 13.7144L21.2967 21.2968V13.7144H22.1538V21.4906H49.297V13.7144H50.1541V21.4906H65.2836C74.7498 17.5839 85.1232 15.4286 96 15.4286H96.0001V13.7144H96.8572V15.4331C107.422 15.5432 117.499 17.6866 126.716 21.4906H141.83V13.7144H142.687V21.4906H169.62V13.7144H170.477V21.4906H170.509L178.286 13.7144L178.892 14.3204L171.722 21.4906H178.286V22.3477H170.864L170.477 22.7353V65.205C174.404 74.6924 176.571 85.0931 176.571 96.0001L178.286 96.0001V96.8572H176.567C176.456 107.452 174.301 117.557 170.477 126.795V169.701H178.286V170.558H170.558ZM169.62 169.62V128.789C165.574 137.859 159.901 146.044 152.973 152.973L169.62 169.62ZM152.366 152.367C159.681 145.052 165.581 136.322 169.62 126.624V107.913C167.08 123.733 159.563 137.89 148.726 148.726L152.366 152.367ZM148.117 149.329L151.757 152.969C148.93 155.736 145.899 158.295 142.687 160.619V154.145C144.574 152.628 146.387 151.02 148.117 149.329ZM148.12 148.12C160.654 135.586 168.695 118.559 169.62 99.6611V96.8572H142.687V142.687L148.12 148.12ZM142.687 143.899L147.511 148.723C145.967 150.231 144.358 151.672 142.687 153.041V143.899ZM141.83 141.83V96.8572H125.988C125.765 104.801 122.454 111.972 117.213 117.213L141.83 141.83ZM116.599 117.811L141.83 143.042V153.733C129.516 163.521 114 169.452 97.1072 169.701H96.8572V125.988C104.495 125.774 111.418 122.705 116.599 117.811ZM116.607 116.607C121.693 111.521 124.908 104.564 125.131 96.8572H96.8572L116.607 116.607ZM96.8572 98.0695L115.992 117.204C110.967 121.944 104.258 124.917 96.8572 125.131V98.0695ZM96 96.0001L96.0001 66.8572C87.9525 66.8572 80.6667 70.1192 75.3929 75.393L96 96.0001ZM74.7957 76.008L94.7878 96.0001H66.8572C66.8572 88.2608 69.8739 81.2262 74.7957 76.008ZM74.7868 74.7869C80.2157 69.358 87.7158 66.0001 96.0001 66.0001V22.3477H93.0764C76.8813 22.9794 62.0276 28.8363 50.1541 38.2798V50.1542L74.7868 74.7869ZM50.1541 51.3664L74.1893 75.4016C69.1126 80.7752 66.0001 88.0241 66.0001 96.0001H50.1541V51.3664ZM49.297 49.2971V38.972C47.4108 40.5184 45.6028 42.1566 43.8797 43.8798L49.297 49.2971ZM43.2771 44.4894L49.297 50.5093V96.0001H22.2908V96C22.2908 75.9541 30.2929 57.7772 43.2771 44.4894ZM43.2736 43.2737C45.1815 41.3658 47.1923 39.5608 49.297 37.8677V31.3926C45.8591 33.8821 42.6277 36.6393 39.6334 39.6336L43.2736 43.2737ZM39.0306 40.2429L42.6709 43.8832C31.8191 54.9859 24.406 69.4639 22.1538 85.595V65.9257C26.0877 56.2761 31.858 47.5704 39.0306 40.2429ZM39.0274 39.0275C42.1992 35.8556 45.6343 32.947 49.297 30.3372V22.3477H22.3476L39.0274 39.0275ZM22.1538 23.3661L38.4245 39.6368C31.6403 46.5659 26.097 54.7145 22.1538 63.7234V23.3661ZM96.0001 97.2122V125.143C88.2608 125.143 81.2261 122.126 76.0078 117.204L96.0001 97.2122ZM152.363 153.576L168.489 169.701H142.687V161.674C146.122 159.228 149.357 156.518 152.363 153.576ZM22.2991 169.701H22.1538V128.277C26.2132 137.551 31.9684 145.914 39.0274 152.973L22.2991 169.701ZM141.83 162.277V169.701H128.606C133.263 167.638 137.687 165.146 141.83 162.277ZM141.83 161.231C137.055 164.592 131.895 167.442 126.428 169.701H107.396C120.249 167.73 132.021 162.477 141.83 154.824V161.231ZM94.8927 169.701H96L96.0001 126C88.0241 126 80.7751 122.887 75.4015 117.811L50.1541 143.058V153.72C62.4702 163.516 77.9926 169.452 94.8927 169.701ZM65.5718 169.701H84.6042C71.7439 167.729 59.9659 162.471 50.1541 154.811V161.22C54.9334 164.585 60.0992 167.439 65.5718 169.701ZM94.8862 170.558H67.7351C76.52 173.89 86.0469 175.714 96 175.714V170.566C95.6281 170.566 95.2568 170.564 94.8862 170.558ZM50.1541 162.265C54.3011 165.14 58.731 167.635 63.3935 169.701H50.1541V162.265ZM49.297 161.663V169.701H23.5112L39.6367 153.576C42.6377 156.514 45.8676 159.219 49.297 161.663ZM124.265 170.558H97.114C97.0284 170.559 96.9428 170.56 96.8572 170.561V175.71C106.5 175.608 115.732 173.794 124.265 170.558ZM50.1541 22.3477V29.7348C54.2687 26.8827 58.6617 24.404 63.2841 22.3477H50.1541ZM65.4545 22.3477C60.0254 24.6019 54.8992 27.4388 50.1541 30.7805V37.1885C59.8861 29.5912 71.5524 24.3568 84.2907 22.3477H65.4545ZM96.8572 22.3477H98.9235C115.111 22.9791 129.959 28.831 141.83 38.2669V50.1704L117.213 74.7868C111.972 69.5458 104.801 66.2349 96.8572 66.0121V22.3477ZM107.709 22.3477H126.545C131.968 24.5993 137.089 27.4324 141.83 30.7691V37.1759C132.101 29.5854 120.44 24.3557 107.709 22.3477ZM124.393 21.4906H98.9405C98.2484 21.4637 97.554 21.4463 96.8572 21.4385V16.2903C106.548 16.3924 115.825 18.2238 124.393 21.4906ZM128.716 22.3477C133.332 24.4013 137.72 26.8762 141.83 29.7236V22.3477H128.716ZM142.687 22.3477V30.3257C146.356 32.9385 149.796 35.851 152.973 39.0275L169.62 22.3803V22.3477H142.687ZM93.0594 21.4906H67.6074C76.4276 18.1276 85.9987 16.2858 96 16.2858H96.0001V21.4337H96C95.0152 21.4337 94.0349 21.4528 93.0594 21.4906ZM170.477 67.5224C173.861 76.3661 175.714 85.9666 175.714 96.0001L170.566 96C170.566 94.7653 170.536 93.5375 170.477 92.3175V67.5224ZM175.71 96.8572H170.561C170.551 97.8033 170.522 98.7451 170.477 99.6824V124.478C173.764 115.886 175.607 106.58 175.71 96.8572ZM169.62 92.3388V96.0001H142.687V50.5254L148.723 44.4894C160.912 56.9634 168.71 73.7461 169.62 92.3388ZM141.83 51.3826V96.0001H126C126 88.0241 122.887 80.7751 117.811 75.4015L141.83 51.3826ZM117.204 76.0079C122.126 81.2261 125.143 88.2608 125.143 96.0001H97.2121L117.204 76.0079ZM95.1428 96.8572H66.8696C67.0922 104.564 70.307 111.521 75.3929 116.607L95.1428 96.8572ZM66.0121 96.8572H50.1541V141.846L74.7868 117.213C69.5458 111.972 66.2349 104.801 66.0121 96.8572ZM49.297 96.8572H22.2957C22.5238 116.871 30.7285 134.969 43.8798 148.12L49.297 142.703V96.8572ZM21.2967 68.1211V96.0001L16.2857 96.0001C16.2857 86.1926 18.0568 76.7988 21.2967 68.1211ZM21.2967 96.8572H16.2902C16.3902 106.355 18.1513 115.454 21.2967 123.879V96.8572ZM142.687 49.3132V38.9587C144.579 40.5091 146.392 42.1517 148.12 43.8798L142.687 49.3132ZM142.687 37.8547V31.3809C146.131 33.8735 149.368 36.6346 152.366 39.6336L148.726 43.2737C146.814 41.3609 144.797 39.5515 142.687 37.8547ZM169.62 65.3764V84.087C167.127 68.5619 159.842 54.6388 149.329 43.8832L152.969 40.2429C160.006 47.4311 165.692 55.9456 169.62 65.3764ZM169.62 23.5925V63.2112C165.692 54.4056 160.231 46.4343 153.575 39.6368L169.62 23.5925ZM22.1538 126.074C26.1973 135.993 32.181 144.914 39.6335 152.367L43.2737 148.726C32.0938 137.546 24.4475 122.833 22.1538 106.405V126.074ZM44.4894 148.723L49.297 143.915V153.028C47.632 151.663 46.0279 150.226 44.4894 148.723ZM43.8832 149.329C45.6085 151.015 47.4152 152.618 49.297 154.132V160.607C46.0911 158.286 43.0647 155.732 40.2428 152.969L43.8832 149.329ZM96.8572 95.1428L116.607 75.3929C111.521 70.307 104.564 67.0922 96.8572 66.8696V95.1428Z" fill="white"/>
</g>
<rect x="14.5715" y="14.5715" width="162.857" height="162.857" rx="26.5714" stroke="#F9F9F9" stroke-width="1.71429"/>
<path d="M49.7142 66.4285V76.7142H39.4285" stroke="#F9F9F9" stroke-width="1.71429"/>
<path d="M49.7142 125.571V115.286H39.4285" stroke="#F9F9F9" stroke-width="1.71429"/>
<path d="M142.286 66.4285V76.7142H152.571" stroke="#F9F9F9" stroke-width="1.71429"/>
<path d="M142.286 125.571V115.286H152.571" stroke="#F9F9F9" stroke-width="1.71429"/>
<path d="M68.7672 105.723C67.3213 105.723 66.143 105.479 65.2322 104.993C64.3214 104.506 63.6098 103.89 63.0975 103.143C62.5966 102.396 62.2379 101.621 62.0216 100.818C61.8053 100.003 61.6744 99.262 61.6288 98.5945C61.5833 97.9269 61.5605 97.4404 61.5605 97.1349V86.85H66.2739V95.5056C66.2739 95.9242 66.2966 96.4617 66.3422 97.1179C66.3877 97.7628 66.53 98.4134 66.7691 99.0697C67.0082 99.7259 67.3953 100.275 67.9304 100.716C68.4769 101.157 69.2453 101.378 70.2358 101.378C70.6343 101.378 71.0612 101.316 71.5166 101.191C71.972 101.067 72.399 100.829 72.7974 100.478C73.1959 100.116 73.5204 99.5901 73.7708 98.8999C74.0327 98.1984 74.1636 97.282 74.1636 96.1505V86.85H78.8428V105.18H74.7442V103.289C74.3157 103.764 73.8204 104.185 73.2585 104.552C72.0745 105.332 70.5774 105.723 68.7672 105.723Z" fill="#F9F9F9"/>
<path d="M105.816 94.3515V105.179H110.461V93.1295C110.461 91.1269 109.921 89.5089 108.839 88.2756C107.769 87.031 106.181 86.4087 104.074 86.4087C102.845 86.4087 101.723 86.6802 100.71 87.2233C99.7825 87.7157 99.0256 88.3925 98.4396 89.2535C98.0026 88.4721 97.399 87.8293 96.6287 87.3252C95.7065 86.7142 94.5225 86.4087 93.0766 86.4087C91.8129 86.4087 90.6687 86.6859 89.6441 87.2403C88.8698 87.664 88.2151 88.2033 87.6802 88.8582V86.85H83.5816V105.179H88.2608V94.0799C88.2608 93.0277 88.5511 92.1734 89.1317 91.5172C89.7238 90.8497 90.5036 90.5159 91.4713 90.5159C92.4846 90.5159 93.2758 90.8553 93.8451 91.5342C94.4257 92.2017 94.716 93.1408 94.716 94.3515V105.179H99.3611V94.0799C99.3611 93.3784 99.492 92.7618 99.7538 92.23C100.027 91.6869 100.403 91.2683 100.881 90.9741C101.359 90.6686 101.923 90.5159 102.572 90.5159C103.585 90.5159 104.376 90.8553 104.945 91.5342C105.526 92.2017 105.816 93.1408 105.816 94.3515Z" fill="#F9F9F9"/>
<path fill-rule="evenodd" clip-rule="evenodd" d="M116.661 104.942C117.583 105.44 118.705 105.689 120.025 105.689C121.619 105.689 122.934 105.418 123.97 104.875C124.796 104.437 125.576 103.789 126.31 102.93V105.18H130.374V93.9787C130.374 93.1414 130.34 92.3833 130.272 91.7045C130.204 91.0256 129.987 90.3467 129.623 89.6678C128.974 88.4459 128.018 87.586 126.754 87.0881C125.49 86.5903 124.044 86.3414 122.416 86.3414C120.196 86.3414 118.443 86.8166 117.156 87.767C115.87 88.7174 114.993 89.9507 114.527 91.4668L118.728 92.7906C119.024 91.9534 119.542 91.3707 120.282 91.0426C121.022 90.7144 121.733 90.5504 122.416 90.5504C123.646 90.5504 124.523 90.8049 125.046 91.3141C125.484 91.7398 125.739 92.3672 125.811 93.1962C125.24 93.5208 124.606 93.7542 123.783 93.8998C122.716 94.0884 121.815 94.2307 121.102 94.3435C120.758 94.3978 120.458 94.4453 120.203 94.4878C119.419 94.6186 118.188 94.9051 117.529 95.1038C116.869 95.3025 116.055 95.6758 115.463 96.2189C114.882 96.7507 114.47 97.3821 114.208 98.0836C113.946 98.7851 113.878 99.2739 113.878 100.122C113.878 101.141 114.111 102.074 114.578 102.923C115.056 103.76 115.75 104.433 116.661 104.942ZM121.016 102.057C121.87 102.057 122.587 101.91 123.168 101.616C123.76 101.31 124.227 100.965 124.568 100.581C124.921 100.196 125.16 99.8735 125.285 99.6133C125.524 99.1155 125.661 98.5384 125.695 97.8822C125.725 97.445 125.745 97.0564 125.755 96.7163C125.001 96.9093 124.338 97.0324 123.805 97.1312L123.783 97.1354C122.929 97.2825 122.24 97.4183 121.716 97.5427C121.192 97.6672 120.731 97.803 120.333 97.9501C119.877 98.1311 119.507 98.3291 119.223 98.5441C118.95 98.7477 118.745 98.974 118.608 99.2229C118.483 99.4719 118.42 99.7491 118.42 100.055C118.42 100.473 118.523 100.835 118.728 101.141C118.944 101.435 119.246 101.661 119.633 101.82C120.02 101.978 120.481 102.057 121.016 102.057Z" fill="#F9F9F9"/>
<path d="M49.7143 92.8382C49.7143 89.777 49.715 87.5329 49.8606 85.7617C50.0054 84.0006 50.2891 82.7829 50.8133 81.7605C51.7801 79.8748 53.3233 78.3407 55.2226 77.3789C56.2532 76.8571 57.4804 76.5748 59.2536 76.4308C61.0366 76.286 63.2954 76.2854 66.3755 76.2854H125.419C128.499 76.2854 130.757 76.286 132.54 76.4308C134.314 76.5748 135.541 76.8571 136.571 77.3789C138.471 78.3407 140.014 79.8748 140.981 81.7605C141.505 82.7829 141.789 84.0006 141.934 85.7617C142.079 87.5329 142.08 89.777 142.08 92.8382V99.1611C142.08 102.222 142.079 104.466 141.934 106.238C141.789 107.999 141.505 109.216 140.981 110.239C140.014 112.124 138.471 113.659 136.571 114.62C135.541 115.142 134.314 115.425 132.54 115.569C130.757 115.713 128.499 115.714 125.419 115.714H66.3755C63.2954 115.714 61.0366 115.713 59.2536 115.569C57.4804 115.425 56.2532 115.142 55.2226 114.62C53.3233 113.659 51.7801 112.124 50.8133 110.239C50.2891 109.216 50.0054 107.999 49.8606 106.238C49.715 104.466 49.7143 102.222 49.7143 99.1611V92.8382Z" stroke="#F9F9F9" stroke-width="1.71429"/>
<defs>
<linearGradient id="paint0_linear_1415_11631" x1="96" y1="-2.86102e-06" x2="96" y2="192" gradientUnits="userSpaceOnUse">
<stop stop-color="#3993E8"/>
<stop offset="1" stop-color="#0068C9"/>
</linearGradient>
<clipPath id="clip0_1415_11631">
<rect x="13.7144" y="13.7144" width="164.571" height="164.571" rx="27.4286" fill="white"/>
</clipPath>
</defs>
</svg>
