<svg width="36" height="36" viewBox="0 0 36 36" fill="none" xmlns="http://www.w3.org/2000/svg">
<g id="UMA Test Wallet App Icon">
<rect width="36" height="36" rx="7.71428" fill="url(#paint0_linear_2613_92170)"/>
<g id="Frame 1422567340">
<g clip-path="url(#clip0_2613_92170)">
<g id="Group 7">
<path id="Union" opacity="0.3" fill-rule="evenodd" clip-rule="evenodd" d="M31.9796 31.9795L33.4285 33.4285L33.3149 33.5421L31.9644 32.1916V33.4285H31.8037V32.0309L31.7523 31.9795H26.7537V33.4285H26.593V31.9795H23.7372C22.015 32.6871 20.1331 33.0857 18.1607 33.1062V33.4285H18V33.1071H17.9999C15.969 33.1071 14.0317 32.7063 12.2627 31.9795H9.40384V33.4285H9.24313V31.9795H4.24761L4.1538 32.0734V33.4285H3.99308V32.2341L2.68502 33.5421L2.57138 33.4285L3.99308 32.0068V31.9795H2.57138V31.8188H3.99308V23.6704C3.30253 21.9663 2.91393 20.1076 2.89364 18.1606H2.57138V17.9999H2.8928C2.89281 15.9945 3.28356 14.0803 3.99308 12.3295V4.22031L3.96286 4.19009H2.57138V4.02937H3.80214L2.45776 2.68499L2.57141 2.57135L3.99308 3.99303V2.57135H4.1538V4.02937H9.24313V2.57135H9.40384V4.02937H12.2407C14.0156 3.29689 15.9606 2.89279 17.9999 2.89279H18V2.57135H18.1607V2.89363C20.1415 2.91428 22.031 3.31615 23.7592 4.02937H26.593V2.57135H26.7537V4.02937H31.8037V2.57135H31.9644V4.02937H31.9705L33.4285 2.57135L33.5422 2.68499L32.1978 4.02937H33.4285V4.19009H32.0371L31.9644 4.26275V12.2259C32.7007 14.0048 33.1071 15.9549 33.1071 17.9999H33.4285V18.1606H33.1062C33.0855 20.1471 32.6814 22.0417 31.9644 23.7739V31.8188H33.4285V31.9795H31.9796ZM31.8037 31.8036V24.1478C31.0451 25.8484 29.9815 27.3831 28.6823 28.6823L31.8037 31.8036ZM28.5687 28.5686C29.9402 27.1971 31.0464 25.5603 31.8037 23.7418V20.2334C31.3274 23.1997 29.918 25.8542 27.8861 27.8861L28.5687 28.5686ZM27.7718 27.9991L28.4544 28.6817C27.9244 29.2005 27.356 29.6801 26.7537 30.116V28.9021C27.1077 28.6176 27.4474 28.3162 27.7718 27.9991ZM27.7725 27.7724C30.1228 25.4221 31.6305 22.2292 31.8037 18.6857V18.1606H26.7537V26.7537L27.7725 27.7724ZM26.7537 26.981L27.6582 27.8854C27.3688 28.1682 27.067 28.4384 26.7537 28.6951V26.981ZM26.593 26.593V18.1606H23.6227C23.5809 19.6501 22.9601 20.9947 21.9774 21.9774L26.593 26.593ZM21.8622 22.0894L26.593 26.8202V28.8248C24.2842 30.6601 21.3748 31.7722 18.2073 31.8188H18.1607V23.6227C19.5927 23.5825 20.8908 23.0071 21.8622 22.0894ZM21.8638 21.8637C22.8174 20.9101 23.4202 19.6057 23.4619 18.1606H18.1607L21.8638 21.8637ZM18.1607 18.3879L21.7485 21.9757C20.8063 22.8644 19.5483 23.4218 18.1607 23.4619V18.3879ZM18 17.9999V12.5356C16.491 12.5356 15.125 13.1472 14.1361 14.1361L18 17.9999ZM14.0241 14.2514L17.7727 17.9999L12.5357 17.9999C12.5357 16.5488 13.1013 15.2298 14.0241 14.2514ZM14.0225 14.0224C15.0404 13.0045 16.4467 12.3749 18 12.3749V4.19009H17.4519C14.4153 4.3085 11.6302 5.40668 9.40384 7.17736V9.40379L14.0225 14.0224ZM9.40384 9.63107L13.9105 14.1377C12.9586 15.1452 12.375 16.5044 12.375 17.9999H9.40384V9.63107ZM9.24313 9.24307V7.30714C8.88948 7.5971 8.55048 7.90426 8.2274 8.22734L9.24313 9.24307ZM8.11441 8.34164L9.24313 9.47036V17.9999H4.17948V17.9999C4.17948 14.2413 5.67988 10.8331 8.11441 8.34164ZM8.11376 8.1137C8.47148 7.75597 8.84851 7.41754 9.24313 7.1001V5.88604C8.59854 6.35282 7.99266 6.86978 7.43125 7.43119L8.11376 8.1137ZM7.31821 7.54544L8.00076 8.22799C5.96605 10.3097 4.57609 13.0244 4.1538 16.0489V12.361C4.8914 10.5517 5.97334 8.91936 7.31821 7.54544ZM7.3176 7.31755C7.91232 6.72284 8.55638 6.17748 9.24313 5.68815V4.19009H4.19014L7.3176 7.31755ZM4.1538 4.38103L7.20456 7.43179C5.93253 8.731 4.89314 10.2589 4.1538 11.948V4.38103ZM18 18.2272V23.4642C16.5489 23.4642 15.2299 22.8986 14.2514 21.9757L18 18.2272ZM28.5681 28.7953L31.5916 31.8188H26.7537V30.3139C27.3979 29.8551 28.0045 29.3471 28.5681 28.7953ZM4.18104 31.8188H4.1538V24.0518C4.91492 25.7907 5.99403 27.3587 7.31758 28.6823L4.18104 31.8188ZM26.593 30.4268V31.8188H24.1137C24.9868 31.432 25.8163 30.9649 26.593 30.4268ZM26.593 30.2307C25.6978 30.8609 24.7302 31.3952 23.7053 31.8188H20.1366C22.5466 31.4493 24.7539 30.4643 26.593 29.0294V30.2307ZM17.7926 31.8188H18V23.6249C16.5045 23.6249 15.1453 23.0413 14.1377 22.0894L9.40384 26.8233V28.8224C11.7132 30.6591 14.6237 31.7722 17.7926 31.8188ZM12.2946 31.8188H15.8633C13.4519 31.4491 11.2436 30.4632 9.40384 29.027V30.2286C10.2999 30.8597 11.2685 31.3947 12.2946 31.8188ZM17.7915 31.9795H12.7002C14.3474 32.6043 16.1337 32.9464 17.9999 32.9464H18V31.9811H17.9999C17.9303 31.9811 17.8609 31.9806 17.7915 31.9795ZM9.40384 30.4247C10.1814 30.9636 11.012 31.4315 11.8862 31.8188H9.40384V30.4247ZM9.24313 30.3117V31.8188H4.40832L7.43182 28.7953C7.99452 29.3463 8.60011 29.8535 9.24313 30.3117ZM23.2997 31.9795H18.2084L18.1607 31.9802V32.9455C19.9687 32.9265 21.6998 32.5864 23.2997 31.9795ZM9.40384 4.19009V5.5752C10.1753 5.04042 10.9991 4.57565 11.8658 4.19009H9.40384ZM12.2728 4.19009C11.2548 4.61275 10.2936 5.14469 9.40384 5.77127V6.97274C11.2286 5.54824 13.4161 4.56679 15.8045 4.19009H12.2728ZM18.1607 4.19009H18.548C21.5832 4.30844 24.3672 5.40568 26.593 7.17494V9.40686L21.9774 14.0224C20.9947 13.0397 19.6501 12.4189 18.1607 12.3772V4.19009ZM20.1954 4.19009H23.7271C24.744 4.61226 25.7041 5.14348 26.593 5.76913V6.97037C24.7689 5.54716 22.5825 4.56658 20.1954 4.19009ZM23.3235 4.02937H18.5511C18.4214 4.02434 18.2913 4.02108 18.1607 4.01961V3.05435C19.9777 3.0735 21.717 3.41687 23.3235 4.02937ZM24.1341 4.19009C24.9997 4.57515 25.8224 5.0392 26.593 5.5731V4.19009H24.1341ZM26.7537 4.19009V5.68599C27.4416 6.17588 28.0867 6.72198 28.6823 7.31757L31.8037 4.19618V4.19009H26.7537ZM17.4488 4.02937H12.6764C14.3302 3.39884 16.1247 3.05351 17.9999 3.05351H18V4.01871H17.9999C17.8154 4.01871 17.6316 4.02228 17.4488 4.02937ZM31.9644 12.6604C32.5988 14.3186 32.9464 16.1187 32.9464 17.9999H31.9811V17.9999C31.9811 17.7686 31.9755 17.5386 31.9644 17.3101V12.6604ZM32.9455 18.1606H31.9802C31.9782 18.3378 31.9729 18.5142 31.9644 18.6897V23.3394C32.5807 21.7285 32.9263 19.9837 32.9455 18.1606ZM31.8037 17.314V17.9999H26.7537V9.47343L27.8855 8.34166C30.1711 10.6807 31.6333 13.8277 31.8037 17.314ZM26.593 9.63414V17.9999H23.625C23.625 16.5044 23.0414 15.1452 22.0895 14.1377L26.593 9.63414ZM21.9758 14.2514C22.8986 15.2298 23.4642 16.5488 23.4642 17.9999H18.2272L21.9758 14.2514ZM17.8392 18.1606H12.538C12.5797 19.6057 13.1825 20.9101 14.1361 21.8637L17.8392 18.1606ZM12.3772 18.1606H9.40384V26.596L14.0225 21.9774C13.0398 20.9947 12.419 19.6501 12.3772 18.1606ZM9.24313 18.1606H4.18039C4.22316 21.9133 5.76155 25.3066 8.22742 27.7725L9.24313 26.7567V18.1606ZM3.99308 12.7726V17.9999H3.05352C3.05352 16.161 3.38561 14.3997 3.99308 12.7726ZM3.99308 18.1606H3.05436C3.07312 19.9415 3.40332 21.6476 3.99308 23.2272V18.1606ZM26.7537 9.24615V7.30466C27.1085 7.59535 27.4485 7.90335 27.7725 8.22736L26.7537 9.24615ZM26.7537 7.09766V5.88385C27.3995 6.3512 28.0064 6.86891 28.5687 7.43121L27.8862 8.11372C27.5275 7.75507 27.1495 7.41581 26.7537 7.09766ZM31.8037 12.2581V15.7664C31.3363 12.8554 29.9703 10.2447 27.9991 8.22801L28.6817 7.54546C30.001 8.89328 31.0673 10.4898 31.8037 12.2581ZM31.8037 4.42347V11.8521C31.0672 10.201 30.0432 8.70637 28.7953 7.43181L31.8037 4.42347ZM4.1538 23.6389C4.91195 25.4986 6.03389 27.1713 7.43122 28.5687L8.11378 27.8861C6.01754 25.7899 4.58386 23.0311 4.1538 19.9508V23.6389ZM8.34172 27.8854L9.24313 26.984V28.6926C8.93095 28.4367 8.63019 28.1673 8.34172 27.8854ZM8.22807 27.9991C8.55154 28.3153 8.8903 28.6159 9.24313 28.8997V30.1138C8.64202 29.6785 8.07458 29.1996 7.54547 28.6817L8.22807 27.9991ZM18.1607 17.8392L21.8638 14.1361C20.9102 13.1825 19.6057 12.5797 18.1607 12.5379V17.8392Z" fill="white"/>
</g>
</g>
<rect x="2.73225" y="2.73216" width="30.5357" height="30.5357" rx="4.98214" stroke="#F9F9F9" stroke-width="0.321429"/>
</g>
<g id="UMA Logo / White">
<g id="UMA Logo / Black">
<g id="paths">
<path d="M11.299 20.3925C10.9432 20.3925 10.6532 20.3326 10.4291 20.2129C10.205 20.0932 10.0299 19.9415 9.90387 19.7577C9.78061 19.574 9.69236 19.3833 9.63914 19.1856C9.58591 18.9851 9.55369 18.8028 9.54249 18.6385C9.53128 18.4742 9.52568 18.3545 9.52568 18.2794V15.7486H10.6855V17.8784C10.6855 17.9815 10.6911 18.1137 10.7023 18.2752C10.7135 18.4339 10.7485 18.594 10.8073 18.7554C10.8662 18.9169 10.9614 19.0519 11.0931 19.1605C11.2275 19.2691 11.4166 19.3234 11.6604 19.3234C11.7584 19.3234 11.8635 19.3081 11.9755 19.2775C12.0876 19.2468 12.1926 19.1884 12.2907 19.1021C12.3887 19.013 12.4686 18.8835 12.5302 18.7137C12.5946 18.5411 12.6268 18.3156 12.6268 18.0371V15.7486H13.7782V20.2588H12.7697V19.7938C12.6643 19.9105 12.5424 20.014 12.4041 20.1043C12.1128 20.2964 11.7444 20.3925 11.299 20.3925Z" fill="#F9F9F9"/>
<path d="M20.4154 17.5945V20.2588H21.5584V17.2938C21.5584 16.801 21.4253 16.4029 21.1592 16.0994C20.8959 15.7932 20.5051 15.64 19.9868 15.64C19.6842 15.64 19.4083 15.7069 19.159 15.8405C18.9307 15.9617 18.7445 16.1282 18.6003 16.34C18.4927 16.1478 18.3442 15.9896 18.1547 15.8655C17.9278 15.7152 17.6364 15.64 17.2806 15.64C16.9697 15.64 16.6881 15.7082 16.436 15.8447C16.2455 15.9489 16.0844 16.0816 15.9528 16.2428V15.7486H14.9443V20.2588H16.0956V17.5277C16.0956 17.2687 16.1671 17.0585 16.3099 16.8971C16.4556 16.7328 16.6475 16.6507 16.8856 16.6507C17.135 16.6507 17.3297 16.7342 17.4697 16.9012C17.6126 17.0655 17.684 17.2966 17.684 17.5945V20.2588H18.827V17.5277C18.827 17.355 18.8592 17.2033 18.9237 17.0725C18.9909 16.9388 19.0833 16.8358 19.201 16.7634C19.3187 16.6882 19.4573 16.6507 19.617 16.6507C19.8663 16.6507 20.061 16.7342 20.2011 16.9012C20.344 17.0655 20.4154 17.2966 20.4154 17.5945Z" fill="#F9F9F9"/>
<path fill-rule="evenodd" clip-rule="evenodd" d="M23.084 20.2005C23.3109 20.323 23.5868 20.3843 23.9118 20.3843C24.304 20.3843 24.6275 20.3174 24.8825 20.1838C25.0857 20.0762 25.2776 19.9167 25.4581 19.7053V20.259H26.4583V17.5027C26.4583 17.2967 26.4498 17.1102 26.433 16.9431C26.4162 16.7761 26.363 16.609 26.2734 16.442C26.1137 16.1413 25.8784 15.9297 25.5674 15.8072C25.2564 15.6847 24.9007 15.6235 24.5001 15.6235C23.9538 15.6235 23.5224 15.7404 23.2058 15.9743C22.8893 16.2081 22.6735 16.5116 22.5587 16.8847L23.5924 17.2104C23.6652 17.0044 23.7927 16.861 23.9748 16.7803C24.1569 16.6995 24.332 16.6592 24.5001 16.6592C24.8026 16.6592 25.0183 16.7218 25.1472 16.8471C25.2549 16.9518 25.3176 17.1062 25.3353 17.3102C25.1948 17.3901 25.0389 17.4475 24.8362 17.4833C24.5737 17.5297 24.3521 17.5648 24.1766 17.5925C24.0921 17.6059 24.0183 17.6175 23.9556 17.628C23.7626 17.6602 23.4597 17.7307 23.2975 17.7796C23.1352 17.8285 22.9347 17.9203 22.789 18.054C22.6461 18.1848 22.5448 18.3402 22.4804 18.5128C22.4159 18.6854 22.399 18.8057 22.399 19.0145C22.399 19.2651 22.4564 19.4947 22.5713 19.7036C22.689 19.9096 22.8598 20.0752 23.084 20.2005ZM24.1555 19.4906C24.3656 19.4906 24.5421 19.4544 24.685 19.382C24.8306 19.3068 24.9455 19.2219 25.0295 19.1272C25.1164 19.0326 25.1752 18.9532 25.206 18.8892C25.2649 18.7667 25.2985 18.6247 25.3069 18.4632C25.3142 18.3557 25.3191 18.26 25.3217 18.1764C25.1361 18.2239 24.9729 18.2541 24.8418 18.2785L24.8362 18.2795C24.6261 18.3157 24.4566 18.3491 24.3278 18.3797C24.1989 18.4103 24.0855 18.4438 23.9874 18.4799C23.8754 18.5245 23.7843 18.5732 23.7143 18.6261C23.647 18.6762 23.5966 18.7319 23.563 18.7932C23.5322 18.8544 23.5168 18.9226 23.5168 18.9978C23.5168 19.1008 23.542 19.1899 23.5924 19.2651C23.6456 19.3374 23.7199 19.3931 23.8151 19.4321C23.9104 19.4711 24.0238 19.4906 24.1555 19.4906Z" fill="#F9F9F9"/>
</g>
<path id="paths_2" d="M6.61081 17.2222C6.61081 16.469 6.61098 15.9168 6.64681 15.4809C6.68243 15.0476 6.75225 14.748 6.88123 14.4964C7.11912 14.0324 7.49885 13.6549 7.96621 13.4183C8.21979 13.2898 8.52177 13.2204 8.95809 13.185C9.39682 13.1493 9.95263 13.1492 10.7105 13.1492H25.2389C25.9968 13.1492 26.5526 13.1493 26.9913 13.185C27.4276 13.2204 27.7296 13.2898 27.9832 13.4183C28.4505 13.6549 28.8303 14.0324 29.0682 14.4964C29.1971 14.748 29.267 15.0476 29.3026 15.4809C29.3384 15.9168 29.3386 16.469 29.3386 17.2222V18.778C29.3386 19.5313 29.3384 20.0835 29.3026 20.5193C29.267 20.9527 29.1971 21.2523 29.0682 21.5039C28.8303 21.9679 28.4505 22.3454 27.9832 22.582C27.7296 22.7104 27.4276 22.7799 26.9913 22.8153C26.5526 22.8509 25.9968 22.8511 25.2389 22.8511H10.7105C9.95263 22.8511 9.39682 22.8509 8.95809 22.8153C8.52177 22.7799 8.21979 22.7104 7.96621 22.582C7.49885 22.3454 7.11912 21.9679 6.88123 21.5039C6.75225 21.2523 6.68243 20.9527 6.64681 20.5193C6.61098 20.0835 6.61081 19.5313 6.61081 18.778V17.2222Z" stroke="#F9F9F9" stroke-width="0.421823"/>
</g>
</g>
</g>
<defs>
<linearGradient id="paint0_linear_2613_92170" x1="18" y1="-5.36442e-07" x2="18" y2="36" gradientUnits="userSpaceOnUse">
<stop stop-color="#3993E8"/>
<stop offset="1" stop-color="#0068C9"/>
</linearGradient>
<clipPath id="clip0_2613_92170">
<rect x="2.57153" y="2.57144" width="30.8571" height="30.8571" rx="5.14286" fill="white"/>
</clipPath>
</defs>
</svg>
