<svg width="305" height="184" viewBox="0 0 305 184" fill="none" xmlns="http://www.w3.org/2000/svg">
<rect x="0.5" y="0.5" width="304" height="183" rx="19.5" fill="#F9F9F9"/>
<rect x="0.5" y="0.5" width="304" height="183" rx="19.5" stroke="#F2F3F5"/>
<g clip-path="url(#clip0_1353_52956)">
<path opacity="0.02" d="M2.99999 129L297 129" stroke="black"/>
<path opacity="0.02" d="M2.99999 48L297 47.9999" stroke="black"/>
<path opacity="0.02" d="M2.99999 45L297 44.9999" stroke="black"/>
<path opacity="0.02" d="M2.99999 38L297 37.9999" stroke="black"/>
<path opacity="0.02" d="M2.99999 35L297 34.9999" stroke="black"/>
<path opacity="0.02" d="M2.99999 24L297 23.9999" stroke="black"/>
<path opacity="0.02" d="M2.99999 150L297 150" stroke="black"/>
<path opacity="0.02" d="M2.99999 164L297 164" stroke="black"/>
<path opacity="0.02" d="M164 8L164 176" stroke="black"/>
<path opacity="0.02" d="M21 8L21 176" stroke="black"/>
<path opacity="0.02" d="M48 8L48 176" stroke="black"/>
<path opacity="0.02" d="M56 9L56 177" stroke="black"/>
<path opacity="0.02" d="M88 9L88 177" stroke="black"/>
<path opacity="0.02" d="M136 9L136 177" stroke="black"/>
<path opacity="0.02" d="M2.99999 21L297 20.9999" stroke="black"/>
</g>
<path d="M8.5 27.2C8.5 23.8314 8.50039 21.3351 8.66183 19.3591C8.82279 17.389 9.14136 15.9803 9.75343 14.7791C10.856 12.6152 12.6152 10.856 14.7791 9.75343C15.9803 9.14136 17.389 8.82279 19.3591 8.66183C21.3351 8.50039 23.8314 8.5 27.2 8.5H277.8C281.169 8.5 283.665 8.50039 285.641 8.66183C287.611 8.82279 289.02 9.14136 290.221 9.75342C292.385 10.856 294.144 12.6152 295.247 14.7791C295.859 15.9803 296.177 17.389 296.338 19.3591C296.5 21.3351 296.5 23.8314 296.5 27.2V156.8C296.5 160.169 296.5 162.665 296.338 164.641C296.177 166.611 295.859 168.02 295.247 169.221C294.144 171.385 292.385 173.144 290.221 174.247C289.02 174.859 287.611 175.177 285.641 175.338C283.665 175.5 281.169 175.5 277.8 175.5H27.2C23.8314 175.5 21.3351 175.5 19.3591 175.338C17.389 175.177 15.9803 174.859 14.7791 174.247C12.6152 173.144 10.856 171.385 9.75342 169.221C9.14136 168.02 8.82279 166.611 8.66183 164.641C8.50039 162.665 8.5 160.169 8.5 156.8V27.2Z" stroke="#DEDFE4"/>
<path fill-rule="evenodd" clip-rule="evenodd" d="M34.4348 47.3478C41.5665 47.3478 47.3478 41.5665 47.3478 34.4348C47.3478 27.3031 41.5665 21.5218 34.4348 21.5218C27.3031 21.5218 21.5218 27.3031 21.5218 34.4348C21.5218 41.5665 27.3031 47.3478 34.4348 47.3478ZM34.4348 48.2087C42.0419 48.2087 48.2087 42.0419 48.2087 34.4348C48.2087 26.8277 42.0419 20.6609 34.4348 20.6609C26.8277 20.6609 20.6609 26.8277 20.6609 34.4348C20.6609 42.0419 26.8277 48.2087 34.4348 48.2087ZM158.026 98.1391H27.0609C25.9266 98.1391 25.1276 98.1398 24.5038 98.1908C23.89 98.2409 23.522 98.3354 23.2358 98.4813C22.6451 98.7822 22.1649 99.2625 21.8639 99.8531C21.7181 100.139 21.6235 100.507 21.5734 101.121C21.5224 101.745 21.5218 102.544 21.5218 103.678V121.87C21.5218 123.004 21.5224 123.803 21.5734 124.427C21.6235 125.04 21.7181 125.408 21.8639 125.695C22.1649 126.285 22.6451 126.766 23.2358 127.067C23.522 127.212 23.89 127.307 24.5038 127.357C25.1276 127.408 25.9266 127.409 27.0609 127.409H158.026C159.16 127.409 159.959 127.408 160.583 127.357C161.197 127.307 161.565 127.212 161.851 127.067C162.442 126.766 162.922 126.285 163.223 125.695C163.369 125.408 163.463 125.04 163.514 124.427C163.565 123.803 163.565 123.004 163.565 121.87V103.678C163.565 102.544 163.565 101.745 163.514 101.121C163.463 100.507 163.369 100.139 163.223 99.8531C162.922 99.2625 162.442 98.7822 161.851 98.4813C161.565 98.3354 161.197 98.2409 160.583 98.1908C159.959 98.1398 159.16 98.1391 158.026 98.1391ZM21.0969 99.4623C20.6609 100.318 20.6609 101.438 20.6609 103.678V121.87C20.6609 124.11 20.6609 125.23 21.0969 126.086C21.4804 126.838 22.0923 127.45 22.8449 127.834C23.7006 128.27 24.8207 128.27 27.0609 128.27H158.026C160.266 128.27 161.386 128.27 162.242 127.834C162.995 127.45 163.607 126.838 163.99 126.086C164.426 125.23 164.426 124.11 164.426 121.87V103.678C164.426 101.438 164.426 100.318 163.99 99.4623C163.607 98.7097 162.995 98.0977 162.242 97.7142C161.386 97.2783 160.266 97.2783 158.026 97.2783H27.0609C24.8207 97.2783 23.7006 97.2783 22.8449 97.7142C22.0923 98.0977 21.4804 98.7097 21.0969 99.4623ZM27.0609 150.652H82.2696C83.4039 150.652 84.2029 150.653 84.8267 150.704C85.4404 150.754 85.8085 150.848 86.0947 150.994C86.6854 151.295 87.1656 151.776 87.4666 152.366C87.6124 152.652 87.7069 153.02 87.7571 153.634C87.808 154.258 87.8087 155.057 87.8087 156.191V157.165C87.8087 158.3 87.808 159.099 87.7571 159.722C87.7069 160.336 87.6124 160.704 87.4666 160.99C87.1656 161.581 86.6854 162.061 86.0947 162.362C85.8085 162.508 85.4404 162.603 84.8267 162.653C84.2029 162.704 83.4039 162.704 82.2696 162.704H27.0609C25.9266 162.704 25.1276 162.704 24.5038 162.653C23.89 162.603 23.522 162.508 23.2358 162.362C22.6451 162.061 22.1649 161.581 21.8639 160.99C21.7181 160.704 21.6235 160.336 21.5734 159.722C21.5224 159.098 21.5218 158.3 21.5218 157.165V156.191C21.5218 155.057 21.5224 154.258 21.5734 153.634C21.6235 153.02 21.7181 152.652 21.8639 152.366C22.1649 151.776 22.6451 151.295 23.2358 150.994C23.522 150.848 23.89 150.754 24.5038 150.704C25.1276 150.653 25.9266 150.652 27.0609 150.652ZM20.6609 156.191C20.6609 153.951 20.6609 152.831 21.0969 151.975C21.4804 151.223 22.0923 150.611 22.8449 150.227C23.7006 149.791 24.8207 149.791 27.0609 149.791H82.2696C84.5098 149.791 85.6299 149.791 86.4855 150.227C87.2382 150.611 87.8501 151.223 88.2336 151.975C88.6696 152.831 88.6696 153.951 88.6696 156.191V157.165C88.6696 159.405 88.6696 160.526 88.2336 161.381C87.8501 162.134 87.2382 162.746 86.4855 163.129C85.6299 163.565 84.5098 163.565 82.2696 163.565H27.0609C24.8207 163.565 23.7006 163.565 22.8449 163.129C22.0923 162.746 21.4804 162.134 21.0969 161.381C20.6609 160.526 20.6609 159.405 20.6609 157.165V156.191ZM104.8 37.8609H58.2C57.6257 37.8609 57.2468 37.8615 56.9565 37.8853C56.6762 37.9082 56.5552 37.9482 56.4828 37.985C56.2685 38.0942 56.0942 38.2685 55.985 38.4828C55.9482 38.5552 55.9082 38.6762 55.8853 38.9565C55.8615 39.2468 55.8609 39.6257 55.8609 40.2V42.8C55.8609 43.3743 55.8615 43.7532 55.8853 44.0435C55.9082 44.3238 55.9482 44.4448 55.985 44.5172C56.0942 44.7315 56.2685 44.9058 56.4828 45.015C56.5552 45.0518 56.6762 45.0918 56.9565 45.1147C57.2468 45.1385 57.6257 45.1391 58.2 45.1391H104.8C105.374 45.1391 105.753 45.1385 106.044 45.1147C106.324 45.0918 106.445 45.0518 106.517 45.015C106.731 44.9058 106.906 44.7315 107.015 44.5172C107.052 44.4448 107.092 44.3238 107.115 44.0435C107.138 43.7532 107.139 43.3743 107.139 42.8V40.2C107.139 39.6257 107.138 39.2468 107.115 38.9565C107.092 38.6762 107.052 38.5552 107.015 38.4828C106.906 38.2685 106.731 38.0942 106.517 37.985C106.445 37.9482 106.324 37.9082 106.044 37.8853C105.753 37.8615 105.374 37.8609 104.8 37.8609ZM55.218 38.092C55 38.5198 55 39.0799 55 40.2V42.8C55 43.9201 55 44.4802 55.218 44.908C55.4097 45.2843 55.7157 45.5903 56.092 45.782C56.5198 46 57.0799 46 58.2 46H104.8C105.92 46 106.48 46 106.908 45.782C107.284 45.5903 107.59 45.2843 107.782 44.908C108 44.4802 108 43.9201 108 42.8V40.2C108 39.0799 108 38.5198 107.782 38.092C107.59 37.7157 107.284 37.4097 106.908 37.218C106.48 37 105.92 37 104.8 37H58.2C57.0799 37 56.5198 37 56.092 37.218C55.7157 37.4097 55.4097 37.7157 55.218 38.092ZM61.1218 24.1044H130.852C131.808 24.1044 132.482 24.1048 133.01 24.1414C133.531 24.1773 133.846 24.2453 134.094 24.3495C134.852 24.6677 135.454 25.2701 135.772 26.0274C135.876 26.2753 135.944 26.5912 135.98 27.1117C136.017 27.6401 136.017 28.3135 136.017 29.2696C136.017 30.2256 136.017 30.899 135.98 31.4274C135.944 31.948 135.876 32.2638 135.772 32.5118C135.454 33.2691 134.852 33.8714 134.094 34.1897C133.846 34.2939 133.531 34.3618 133.01 34.3978C132.482 34.4343 131.808 34.4348 130.852 34.4348H61.1217C60.1657 34.4348 59.4923 34.4343 58.9639 34.3978C58.4434 34.3618 58.1275 34.2939 57.8795 34.1897C57.1223 33.8714 56.5199 33.2691 56.2017 32.5118C56.0975 32.2638 56.0295 31.948 55.9935 31.4274C55.957 30.899 55.9565 30.2256 55.9565 29.2696C55.9565 28.3135 55.957 27.6401 55.9935 27.1117C56.0295 26.5912 56.0975 26.2753 56.2017 26.0274C56.5199 25.2701 57.1223 24.6677 57.8795 24.3495C58.1275 24.2453 58.4434 24.1773 58.9639 24.1414C59.4923 24.1048 60.1657 24.1044 61.1218 24.1044ZM55.0957 29.2696C55.0957 27.3813 55.0957 26.4372 55.408 25.6939C55.8135 24.7289 56.5811 23.9614 57.546 23.5559C58.2894 23.2435 59.2335 23.2435 61.1218 23.2435H130.852C132.74 23.2435 133.685 23.2435 134.428 23.5559C135.393 23.9614 136.16 24.7289 136.566 25.6939C136.878 26.4372 136.878 27.3813 136.878 29.2696C136.878 31.1578 136.878 32.102 136.566 32.8453C136.16 33.8102 135.393 34.5778 134.428 34.9833C133.685 35.2957 132.74 35.2957 130.852 35.2957H61.1217C59.2335 35.2957 58.2894 35.2957 57.546 34.9833C56.5811 34.5778 55.8135 33.8102 55.408 32.8453C55.0957 32.102 55.0957 31.1578 55.0957 29.2696Z" fill="#DEDFE4"/>
<defs>
<clipPath id="clip0_1353_52956">
<path d="M8 27.2C8 20.4794 8 17.1191 9.30792 14.5521C10.4584 12.2942 12.2942 10.4584 14.5521 9.30792C17.1191 8 20.4794 8 27.2 8H277.8C284.521 8 287.881 8 290.448 9.30792C292.706 10.4584 294.542 12.2942 295.692 14.5521C297 17.1191 297 20.4794 297 27.2V156.8C297 163.521 297 166.881 295.692 169.448C294.542 171.706 292.706 173.542 290.448 174.692C287.881 176 284.521 176 277.8 176H27.2C20.4794 176 17.1191 176 14.5521 174.692C12.2942 173.542 10.4584 171.706 9.30792 169.448C8 166.881 8 163.521 8 156.8V27.2Z" fill="white"/>
</clipPath>
</defs>
</svg>
