<svg width="16" height="16" viewBox="0 0 16 16" fill="none" xmlns="http://www.w3.org/2000/svg">
<g clip-path="url(#clip0_2253_3044)">
<path fill-rule="evenodd" clip-rule="evenodd" d="M-2.90906 -0.181885H18.9091V16.1818H-2.90906V-0.181885Z" fill="#229E45"/>
<path fill-rule="evenodd" clip-rule="evenodd" d="M8.04781 14.6818L18.3262 8.01016L7.98645 1.31812L-2.32605 8.0238L8.04781 14.6818Z" fill="#F8E509"/>
<path fill-rule="evenodd" clip-rule="evenodd" d="M12.5273 7.99991C12.5273 10.3965 10.5807 12.3397 8.17731 12.3397C7.31845 12.3383 6.47928 12.0824 5.76587 11.6042C5.05246 11.126 4.49685 10.447 4.16927 9.65305C3.84169 8.85913 3.75685 7.9859 3.92548 7.14376C4.09411 6.30162 4.50863 5.52839 5.11665 4.9218C5.72467 4.31521 6.49888 3.90251 7.34141 3.73586C8.18394 3.56922 9.05697 3.65611 9.85012 3.98556C10.6433 4.31501 11.321 4.87222 11.7975 5.58675C12.274 6.30128 12.528 7.14105 12.5273 7.99991Z" fill="#2B49A3"/>
<path fill-rule="evenodd" clip-rule="evenodd" d="M6.74895 10.601L6.61259 10.5226L6.47623 10.5908L6.50691 10.4374L6.39782 10.3215L6.55123 10.3044L6.62623 10.1681L6.691 10.3113L6.841 10.3385L6.7285 10.4408M9.66032 11.3374L9.52736 11.259L9.391 11.3272L9.41827 11.1738L9.31259 11.0613L9.466 11.0442L9.53759 10.9044L9.60577 11.0476L9.75577 11.0749L9.63986 11.1806M8.40577 10.1579L8.28986 10.0897L8.17055 10.151L8.19782 10.0181L8.10236 9.91922L8.23873 9.90558L8.30009 9.78286L8.35464 9.90899L8.48759 9.93286L8.38532 10.0249M11.3512 9.73513L11.2353 9.66695L11.116 9.72831L11.1433 9.59536L11.0512 9.4999L11.1842 9.48627L11.2455 9.36695L11.3001 9.48968L11.4296 9.51354L11.3308 9.60218M8.35464 8.85218L8.21827 8.77717L8.08191 8.84536L8.10918 8.68854L8.0035 8.57604L8.15691 8.55899L8.2285 8.41922L8.29668 8.5624L8.44668 8.58967L8.33077 8.69877M4.76486 7.50558L4.6285 7.43058L4.49214 7.49877L4.52623 7.34195L4.41373 7.22945L4.57055 7.2124L4.63873 7.07263L4.70691 7.21581L4.85691 7.24308L4.74441 7.34877M5.19782 9.29877L5.06145 9.22036L4.92509 9.28854L4.95577 9.13513L4.84668 9.02263L5.00009 9.00218L5.07168 8.86581L5.13986 9.00899L5.28986 9.03627L5.17736 9.14195M9.67736 6.84763L9.55464 6.77945L9.43191 6.84081L9.45918 6.70445L9.36373 6.60218L9.50009 6.58513L9.56486 6.4624L9.62282 6.59195L9.75918 6.61581L9.65691 6.70786M9.4285 8.01354L9.33645 7.95899L9.23759 8.00672L9.25805 7.89763L9.18305 7.81922L9.29214 7.80558L9.34327 7.71013L9.38759 7.8124L9.48986 7.82945L9.41486 7.90445M4.56714 9.62263L4.47509 9.57149L4.38305 9.61581L4.4035 9.51354L4.33191 9.43854L4.43418 9.4249L4.48191 9.33286L4.52623 9.42831L4.6285 9.44877L4.55009 9.51695M11.3751 10.0385L11.3001 10.001L11.2251 10.0351L11.2421 9.95672L11.1842 9.90217L11.266 9.89195L11.3069 9.82377L11.341 9.89195L11.4262 9.90899L11.3615 9.96013" fill="#FFFFEF"/>
<path fill-rule="evenodd" clip-rule="evenodd" d="M4.56714 9.62278L4.47509 9.57164L4.38305 9.61596L4.4035 9.51369L4.33191 9.43869L4.43418 9.42505L4.48191 9.33301L4.52623 9.42846L4.6285 9.44892L4.55009 9.5171" fill="#FFFFEF"/>
<path fill-rule="evenodd" clip-rule="evenodd" d="M4.56714 9.62272L4.47509 9.57158L4.38305 9.6159L4.4035 9.51363L4.33191 9.43863L4.43418 9.42499L4.48191 9.33295L4.52623 9.4284L4.6285 9.44885L4.55009 9.51704M5.99214 9.61931L5.9035 9.57158L5.81145 9.6159L5.83191 9.51363L5.76032 9.43863L5.86259 9.42499L5.91032 9.33295L5.95464 9.4284L6.05691 9.44545L5.9785 9.51704M5.81486 10.0966L5.72623 10.0454L5.63418 10.0932L5.65464 9.9909L5.58305 9.91249L5.68532 9.89885L5.73305 9.80681L5.77736 9.90226L5.87964 9.92272L5.80123 9.9909M8.78077 9.23408L8.69214 9.17954L8.59668 9.22726L8.61714 9.12499L8.54895 9.04658L8.65123 9.03635L8.69895 8.94431L8.73986 9.03976L8.84214 9.05681L8.76714 9.1284M7.91145 9.23067L7.81941 9.17954L7.72736 9.22726L7.74782 9.12499L7.67964 9.04658L7.78191 9.03635L7.82964 8.9409L7.87055 9.03976L7.97282 9.05681L7.89782 9.1284M5.55236 8.93067L5.49441 8.89658L5.43645 8.92386L5.45009 8.85908L5.40577 8.81135L5.47055 8.80454L5.49782 8.74658L5.52509 8.80795L5.58986 8.81817L5.54214 8.86249M11.2626 10.4102L11.174 10.3591L11.0819 10.4068L11.1024 10.3045L11.0308 10.2261L11.133 10.2125L11.1808 10.1204L11.2251 10.2159L11.3274 10.2364L11.249 10.3045M10.5399 10.5091L10.4649 10.4614L10.3865 10.5023L10.4035 10.4136L10.3455 10.3523L10.4308 10.342L10.4717 10.2636L10.5058 10.3454L10.591 10.3591L10.5262 10.4204M10.8808 10.4989L10.8126 10.4579L10.741 10.492L10.7546 10.4136L10.7001 10.3557L10.7785 10.3454L10.816 10.2773L10.8501 10.3454L10.9285 10.3625L10.8705 10.417M11.8626 9.63976L11.7944 9.60567L11.7262 9.63976L11.7433 9.56135L11.6887 9.5034L11.7671 9.49317L11.8012 9.42499L11.8353 9.49658L11.9069 9.51022L11.8524 9.56476M10.5296 10.9898L10.4444 10.942L10.3524 10.9829L10.3728 10.8875L10.3046 10.8193L10.4069 10.8091L10.4512 10.7239L10.4921 10.8125L10.5944 10.8295L10.516 10.8943M10.5365 11.3784L10.4546 11.3307L10.3728 11.375L10.3933 11.2795L10.3285 11.2114L10.4205 11.1977L10.4615 11.1125L10.499 11.2011L10.591 11.2182L10.5228 11.2864M9.87509 10.4989L9.81032 10.4579L9.74214 10.492L9.75577 10.417L9.70464 10.3591L9.77964 10.3523L9.81373 10.2841L9.84782 10.3523L9.92282 10.3659L9.86827 10.4204M9.26145 10.4989L9.19327 10.4579L9.12509 10.492L9.14214 10.417L9.08759 10.3591L9.166 10.3523L9.20009 10.2841L9.23418 10.3523L9.30577 10.3659L9.25123 10.4204M8.21486 9.58181L8.14668 9.54431L8.0785 9.5784L8.09554 9.49999L8.041 9.44545L8.116 9.43522L8.15009 9.36704L8.18418 9.43522L8.25918 9.45226L8.20464 9.5034M8.33077 11.4466L8.27623 11.4159L8.21486 11.4466L8.2285 11.3784L8.18418 11.3307L8.24895 11.3239L8.27964 11.2659L8.30691 11.3273L8.37168 11.3375L8.32395 11.3818M6.74895 8.42954L6.61259 8.35113L6.47623 8.41931L6.50691 8.2659L6.39782 8.1534L6.55123 8.13295L6.62623 7.99658L6.691 8.13976L6.841 8.16704L6.7285 8.27272" fill="#FFFFEF"/>
<path fill-rule="evenodd" clip-rule="evenodd" d="M12.2409 9.56128C12.3254 9.34213 12.3915 9.11636 12.4386 8.88628C10.1273 6.85787 7.5534 5.8181 4.30113 6.03287C4.18317 6.26111 4.08618 6.49959 4.01135 6.74537C7.86363 6.37719 10.6932 8.08174 12.2409 9.56128Z" fill="white"/>
<path d="M11.2046 8.42257L11.283 8.46689C11.2713 8.49004 11.2677 8.51645 11.2728 8.54189C11.2808 8.56656 11.2979 8.58728 11.3205 8.59984C11.3444 8.61689 11.3683 8.62712 11.3887 8.62371C11.4092 8.62371 11.4228 8.61348 11.433 8.59984C11.439 8.59079 11.4414 8.57988 11.4399 8.56916C11.4371 8.55657 11.4312 8.54486 11.4228 8.53507C11.416 8.52484 11.3989 8.50098 11.3717 8.47371C11.3436 8.44478 11.3226 8.40978 11.3103 8.37143C11.3018 8.34241 11.304 8.3113 11.3165 8.28376C11.329 8.25623 11.351 8.23411 11.3785 8.22144C11.4033 8.21109 11.4307 8.2087 11.4569 8.21462C11.489 8.222 11.5191 8.23593 11.5455 8.25553C11.5933 8.28962 11.6239 8.32371 11.6342 8.36462C11.6389 8.38375 11.6395 8.40367 11.636 8.42305C11.6325 8.44244 11.6249 8.46087 11.6137 8.47712L11.5319 8.42598C11.5421 8.40553 11.5455 8.38507 11.5387 8.36803C11.5353 8.35098 11.5217 8.33394 11.4978 8.3203C11.4803 8.30621 11.4589 8.29788 11.4364 8.29644C11.4303 8.29623 11.4241 8.2977 11.4187 8.30071C11.4133 8.30371 11.4089 8.30812 11.4058 8.31348C11.3989 8.32371 11.3989 8.33394 11.4024 8.34757C11.4058 8.36121 11.4228 8.38848 11.4569 8.42257C11.491 8.45666 11.5114 8.48734 11.5251 8.5078C11.5373 8.53014 11.5428 8.55551 11.541 8.58089C11.5391 8.60627 11.5301 8.6306 11.5149 8.65098C11.4989 8.67416 11.4763 8.69198 11.4501 8.70212C11.4245 8.71389 11.3959 8.71746 11.3683 8.71234C11.3376 8.70553 11.3069 8.69189 11.2728 8.66803C11.2217 8.63394 11.191 8.59643 11.1808 8.55553C11.1697 8.50914 11.177 8.46025 11.2012 8.41916L11.2046 8.42257ZM10.8092 8.16348L10.8944 8.2078C10.8838 8.23134 10.8814 8.25774 10.8876 8.2828C10.8963 8.3062 10.9133 8.3256 10.9353 8.33734C10.9626 8.35439 10.983 8.36121 11.0035 8.3578C11.0239 8.3578 11.0376 8.34757 11.0478 8.33053C11.053 8.32242 11.0554 8.31284 11.0546 8.30325C11.0546 8.29303 11.0478 8.27939 11.0376 8.26916C11.0201 8.24808 11.0019 8.22761 10.983 8.2078C10.9455 8.1703 10.9217 8.13962 10.9149 8.11234C10.9093 8.0948 10.9076 8.07625 10.91 8.05799C10.9123 8.03974 10.9186 8.02222 10.9285 8.00666C10.9415 7.98562 10.9605 7.96899 10.983 7.95894C11.0065 7.94814 11.0326 7.94457 11.058 7.94871C11.0896 7.95402 11.1197 7.96561 11.1467 7.9828C11.1978 8.01689 11.2285 8.05098 11.2387 8.08848C11.2449 8.10764 11.2469 8.12792 11.2446 8.14793C11.2422 8.16793 11.2356 8.18719 11.2251 8.20439L11.1399 8.15666C11.1501 8.1328 11.1535 8.11575 11.1467 8.09871C11.1399 8.08166 11.1262 8.06462 11.1024 8.05098C11.0835 8.03744 11.0608 8.03028 11.0376 8.03053C11.032 8.0309 11.0266 8.03266 11.0218 8.03563C11.0171 8.0386 11.0131 8.04271 11.0103 8.04757C11.0035 8.0578 11.0035 8.06803 11.0069 8.08166C11.0103 8.0953 11.0308 8.12257 11.0649 8.15666C11.0989 8.19075 11.1228 8.21803 11.133 8.23848C11.1467 8.25986 11.154 8.2847 11.154 8.31007C11.154 8.33544 11.1467 8.36028 11.133 8.38166C11.1183 8.40544 11.097 8.42441 11.0717 8.43621C11.0461 8.44798 11.0175 8.45155 10.9899 8.44644C10.9548 8.4405 10.9212 8.42776 10.891 8.40894C10.8469 8.38544 10.813 8.34664 10.7955 8.29984C10.7824 8.25433 10.7872 8.20549 10.8092 8.16348ZM10.3251 8.03394L10.5739 7.62484L10.8739 7.81234L10.833 7.88053L10.6149 7.74416L10.5603 7.83621L10.7649 7.96234L10.7205 8.03053L10.516 7.90439L10.4478 8.01689L10.6762 8.15325L10.6353 8.22144L10.3285 8.03394H10.3251ZM9.6194 7.45439L9.6569 7.38621L9.84099 7.47825L9.75577 7.64871C9.72849 7.65553 9.6944 7.65894 9.65349 7.65553C9.61421 7.6512 9.57607 7.63964 9.54099 7.62144C9.49974 7.60134 9.46448 7.57078 9.43872 7.5328C9.41528 7.49752 9.40336 7.45582 9.40463 7.41348C9.40636 7.36941 9.41801 7.32629 9.43872 7.28734C9.4592 7.24635 9.48969 7.21117 9.52736 7.18507C9.56339 7.16015 9.60628 7.14705 9.65008 7.14757C9.68417 7.14757 9.71827 7.1578 9.75917 7.18166C9.81372 7.20553 9.84781 7.23962 9.86486 7.27712C9.88259 7.31434 9.88622 7.35673 9.87508 7.39644L9.78304 7.36916C9.78867 7.34633 9.78627 7.32225 9.77622 7.30098C9.76599 7.28053 9.74895 7.26689 9.72167 7.25325C9.70578 7.24418 9.68815 7.23858 9.66993 7.23682C9.65171 7.23505 9.63333 7.23717 9.61599 7.24303C9.5819 7.25325 9.55122 7.28394 9.52736 7.33166C9.50349 7.37939 9.49327 7.42371 9.50349 7.46121C9.5082 7.47899 9.51675 7.49553 9.52852 7.50967C9.5403 7.5238 9.55503 7.53519 9.57167 7.54303C9.58872 7.55325 9.60917 7.56007 9.62963 7.56007C9.64997 7.56316 9.67065 7.56316 9.69099 7.56007L9.71827 7.50553L9.6194 7.45439ZM6.5444 6.69416L6.61258 6.21689L6.75577 6.24075L6.79327 6.57484L6.92622 6.26803L7.0694 6.28848L7.00122 6.75894L6.90917 6.7453L6.96713 6.37371L6.81713 6.73166L6.72508 6.71803L6.68758 6.3328L6.63304 6.7078L6.5444 6.69416ZM6.06372 6.63621L6.10804 6.15894L6.45917 6.19303L6.45236 6.27484L6.19668 6.25098L6.18645 6.35325L6.42508 6.37712L6.41486 6.45894L6.17622 6.43507L6.16599 6.56462L6.4319 6.58848L6.42508 6.6703L6.06372 6.63621Z" fill="#309E3A"/>
<path d="M4.47164 6.33969C4.47164 6.28856 4.48186 6.25106 4.4955 6.21697C4.50745 6.19272 4.52361 6.17079 4.54323 6.15219C4.56071 6.13456 4.58159 6.12064 4.60459 6.11128C4.63868 6.10106 4.67277 6.09424 4.70686 6.09424C4.77845 6.09424 4.833 6.12151 4.87732 6.16242C4.89841 6.18848 4.9141 6.21848 4.92347 6.25068C4.93283 6.28287 4.93569 6.31661 4.93186 6.34992C4.93186 6.42492 4.908 6.48628 4.86368 6.5306C4.84091 6.55165 4.81397 6.56769 4.78461 6.57767C4.75524 6.58765 4.72411 6.59136 4.69323 6.58856C4.66276 6.58886 4.63254 6.58298 4.60441 6.57126C4.57628 6.55954 4.55083 6.54223 4.52959 6.52037C4.48717 6.47016 4.46634 6.40521 4.47164 6.33969Z" fill="#309E3A"/>
<path d="M4.57056 6.33972C4.57056 6.39086 4.58078 6.43177 4.60465 6.46245C4.62851 6.48972 4.65919 6.50677 4.7001 6.50677C4.7178 6.50801 4.73555 6.50529 4.75206 6.4988C4.76858 6.49231 4.78343 6.48222 4.79556 6.46927C4.81942 6.442 4.82965 6.40109 4.83306 6.34313C4.83306 6.28859 4.82624 6.24768 4.79897 6.22041C4.78786 6.20667 4.77384 6.19556 4.75793 6.1879C4.74201 6.18023 4.72459 6.1762 4.70692 6.17609C4.68899 6.17551 4.67115 6.17888 4.65465 6.18595C4.63816 6.19302 4.62342 6.20361 4.61147 6.217C4.58419 6.24427 4.57397 6.28518 4.57056 6.33972Z" fill="#F7FFFF"/>
<path d="M5.03418 6.58518L5.041 6.10791H5.24554C5.29668 6.10791 5.33077 6.11473 5.35463 6.12496C5.3785 6.13177 5.39554 6.14882 5.40918 6.16927C5.42282 6.18973 5.42963 6.217 5.42963 6.24768C5.4299 6.28048 5.41772 6.31215 5.39554 6.33632C5.37034 6.35993 5.33791 6.37434 5.3035 6.37723L5.35463 6.41814C5.36827 6.43177 5.38532 6.45905 5.40577 6.49655L5.46373 6.592H5.34782L5.27963 6.48291L5.23191 6.41473C5.22364 6.40535 5.21306 6.3983 5.20122 6.39427C5.18572 6.38975 5.16965 6.38746 5.1535 6.38746H5.13304V6.58518H5.03418Z" fill="#309E3A"/>
<path d="M5.13647 6.31242H5.20466C5.25238 6.31242 5.28307 6.31242 5.29329 6.30561C5.30352 6.30561 5.31375 6.29538 5.32057 6.28856C5.32738 6.28174 5.33079 6.2647 5.33079 6.25447C5.33079 6.23402 5.32738 6.22038 5.31716 6.21356C5.31034 6.20333 5.2967 6.19652 5.28307 6.19311H5.21488L5.13647 6.1897V6.30902V6.31242Z" fill="white"/>
<path d="M5.57953 6.13184L5.7568 6.14206C5.7943 6.14206 5.82498 6.14547 5.84544 6.15229C5.87197 6.16192 5.89549 6.17838 5.91362 6.20002C5.93326 6.22385 5.94724 6.25182 5.95453 6.28184C5.96475 6.31252 5.96816 6.35002 5.96475 6.39434C5.96472 6.42913 5.95896 6.46368 5.94771 6.49661C5.93407 6.5307 5.91362 6.55797 5.88976 6.57843C5.86989 6.59479 5.84658 6.60645 5.82157 6.61252C5.80112 6.61934 5.77044 6.61934 5.73635 6.61934L5.55566 6.60911L5.57953 6.13184Z" fill="#309E3A"/>
<path d="M5.67159 6.21704L5.65454 6.53409H5.78409C5.80113 6.53409 5.81477 6.52727 5.825 6.51704C5.83522 6.50681 5.84545 6.49318 5.85227 6.47272C5.85909 6.45227 5.8659 6.42159 5.8659 6.38409L5.86249 6.29886C5.85763 6.28088 5.84824 6.26445 5.83522 6.25113C5.8239 6.23975 5.8098 6.23152 5.79431 6.22727C5.76853 6.22153 5.74229 6.21811 5.7159 6.21704H5.67159Z" fill="white"/>
<path d="M7.91821 6.98414L8.03071 6.52051L8.18071 6.5546L8.2898 6.58869C8.31367 6.60233 8.33412 6.62278 8.34435 6.65346C8.35799 6.68073 8.35798 6.71142 8.35117 6.74892C8.34435 6.77619 8.33412 6.80005 8.31708 6.8171C8.30457 6.83207 8.28893 6.8441 8.27126 6.85235C8.25358 6.8606 8.23431 6.86486 8.2148 6.86483C8.19094 6.86483 8.15685 6.85801 8.11253 6.84778L8.05458 6.83073L8.01367 7.00801L7.91821 6.98414Z" fill="#309E3A"/>
<path d="M8.10235 6.6228L8.07507 6.75235L8.12621 6.76598C8.1603 6.7728 8.18757 6.77962 8.20121 6.77621C8.21447 6.77437 8.22684 6.76847 8.2366 6.75931C8.24637 6.75015 8.25306 6.73819 8.25575 6.72508C8.25575 6.70803 8.25575 6.69439 8.24894 6.68076C8.24146 6.6669 8.22941 6.65606 8.21485 6.65008L8.15007 6.63303L8.10575 6.6228H8.10235Z" fill="white"/>
<path d="M8.36145 7.11699L8.52168 6.66699L8.70918 6.73517C8.76031 6.75222 8.79099 6.76927 8.81145 6.7829C8.82849 6.79995 8.84213 6.81699 8.84554 6.84427C8.84895 6.87154 8.85236 6.8954 8.84554 6.92267C8.8319 6.95676 8.81145 6.98063 8.78418 6.99767C8.7569 7.01131 8.72281 7.01472 8.6819 7.0079C8.69554 7.02495 8.70918 7.04199 8.716 7.06245L8.74327 7.15449L8.76372 7.26017L8.65804 7.22267L8.62395 7.09995C8.61775 7.07219 8.60978 7.04486 8.60009 7.01813C8.59556 7.00752 8.58855 6.99817 8.57963 6.99086C8.57281 6.98063 8.55918 6.97381 8.53531 6.96699L8.51827 6.96017L8.45009 7.15108L8.36145 7.11699Z" fill="#309E3A"/>
<path d="M8.54552 6.88862L8.6103 6.91249C8.65461 6.92953 8.68189 6.93635 8.69552 6.93635C8.70575 6.93635 8.71598 6.93635 8.7262 6.92612C8.73643 6.9193 8.74325 6.90908 8.74666 6.89544C8.75348 6.8818 8.75348 6.86817 8.74666 6.85453C8.74162 6.84132 8.73192 6.83041 8.71939 6.82385L8.65121 6.79999L8.58302 6.77612L8.54211 6.88862H8.54552Z" fill="white"/>
<path d="M8.92046 7.09986C8.93218 7.05995 8.9519 7.02283 8.97841 6.99077C8.99566 6.9702 9.01644 6.95288 9.03978 6.93964C9.06091 6.9277 9.084 6.91962 9.10796 6.91577C9.14205 6.91577 9.17614 6.91577 9.21364 6.92941C9.24411 6.93695 9.27264 6.95088 9.29732 6.97027C9.32201 6.98967 9.34229 7.01408 9.35682 7.04191C9.38409 7.09645 9.3841 7.16123 9.36364 7.23623C9.34677 7.30066 9.3051 7.35581 9.24773 7.38964C9.1966 7.42032 9.13523 7.42373 9.07046 7.40327C9.04007 7.39553 9.01164 7.38153 8.98698 7.36215C8.96232 7.34278 8.94199 7.31847 8.92728 7.29077C8.91362 7.26097 8.90599 7.22876 8.90482 7.196C8.90365 7.16324 8.90897 7.13056 8.92046 7.09986Z" fill="#309E3A"/>
<path d="M9.01594 7.12726C9.0023 7.17839 8.99889 7.22271 9.01594 7.2568C9.03298 7.29089 9.05685 7.31135 9.09435 7.32498C9.12844 7.33521 9.16253 7.3318 9.19662 7.31135C9.23071 7.2943 9.25116 7.2568 9.26821 7.20226C9.28525 7.15112 9.28525 7.11021 9.26821 7.07612C9.26148 7.05995 9.25127 7.04545 9.23831 7.03367C9.22535 7.02189 9.20995 7.0131 9.19321 7.00794C9.17644 7.00215 9.15861 7.00006 9.14095 7.00183C9.12329 7.0036 9.10623 7.00917 9.09094 7.01817C9.05685 7.03862 9.03298 7.07271 9.01594 7.12726Z" fill="white"/>
<path d="M9.8512 7.76477L10.0694 7.34204L10.2501 7.43409C10.2841 7.45043 10.3152 7.47232 10.3421 7.49886C10.3592 7.5159 10.3694 7.53636 10.3694 7.56363C10.3694 7.5909 10.3694 7.61477 10.3557 7.63863C10.3426 7.66929 10.3182 7.69371 10.2876 7.70681C10.2535 7.71363 10.2194 7.71363 10.1819 7.7C10.1955 7.72045 10.2023 7.7409 10.2092 7.75795C10.216 7.7784 10.2194 7.80909 10.2228 7.8534L10.2296 7.9625L10.1273 7.91136L10.1137 7.78522C10.1121 7.75663 10.1087 7.72816 10.1035 7.7C10.1011 7.68724 10.0952 7.67542 10.0864 7.6659L10.0455 7.64204L10.0285 7.63181L9.93642 7.80909L9.8512 7.76477Z" fill="#309E3A"/>
<path d="M10.0625 7.56368L10.1273 7.59777C10.1682 7.61823 10.1955 7.63186 10.2057 7.63186C10.2159 7.63186 10.2295 7.63186 10.2398 7.62504C10.25 7.62164 10.2568 7.61141 10.2636 7.59777C10.2705 7.58414 10.2739 7.5705 10.2705 7.55686C10.2662 7.54329 10.2579 7.53137 10.2466 7.52277C10.2266 7.51052 10.2062 7.49915 10.1852 7.48868L10.117 7.45459L10.0625 7.56368Z" fill="white"/>
<path d="M11.617 8.63751C11.6391 8.60246 11.6681 8.57229 11.7023 8.54887C11.7252 8.53419 11.7506 8.5238 11.7773 8.51819C11.802 8.51314 11.8275 8.51314 11.8523 8.51819C11.8864 8.52501 11.917 8.53865 11.9477 8.5591C11.9742 8.57563 11.997 8.5975 12.0147 8.62333C12.0323 8.64916 12.0443 8.67837 12.05 8.7091C12.0602 8.76706 12.0432 8.83183 12.0023 8.8966C11.968 8.95294 11.9129 8.9934 11.8489 9.0091C11.8183 9.01569 11.7868 9.01576 11.7562 9.0093C11.7257 9.00284 11.6968 8.98999 11.6716 8.9716C11.645 8.95507 11.6222 8.9332 11.6046 8.90737C11.587 8.88155 11.575 8.85234 11.5693 8.8216C11.5591 8.76024 11.5761 8.69887 11.617 8.63751Z" fill="#309E3A"/>
<path d="M11.7022 8.69199C11.6681 8.73631 11.6579 8.77722 11.6647 8.81472C11.6672 8.83198 11.6734 8.84852 11.6828 8.86321C11.6922 8.87791 11.7046 8.89043 11.7193 8.89995C11.7534 8.92381 11.7874 8.93063 11.8215 8.9204C11.8556 8.91017 11.8897 8.88631 11.9204 8.83858C11.9511 8.79085 11.9647 8.74995 11.9579 8.71585C11.9545 8.68176 11.934 8.65108 11.9034 8.62722C11.8727 8.60335 11.8352 8.59995 11.8011 8.61017C11.767 8.61699 11.7329 8.64426 11.6988 8.69199H11.7022Z" fill="white"/>
<path d="M7.37964 6.78966L7.45805 6.45557L7.7035 6.51352L7.69327 6.56807L7.51259 6.52716L7.49555 6.60216L7.66259 6.63966L7.64896 6.69761L7.48191 6.6567L7.46146 6.74875L7.64896 6.79307L7.63532 6.84761L7.37964 6.78966Z" fill="#309E3A"/>
</g>
<defs>
<clipPath id="clip0_2253_3044">
<rect width="21.8182" height="16.3636" fill="white" transform="translate(-2.90906 -0.181885)"/>
</clipPath>
</defs>
</svg>
