<svg width="32" height="32" viewBox="0 0 32 32" fill="none" xmlns="http://www.w3.org/2000/svg">
<g clip-path="url(#clip0_3088_1348)">
<path d="M-5.81818 -0.363525H37.8182V32.3637H-5.81818V-0.363525Z" fill="#012169"/>
<path d="M-0.70454 -0.363525L15.9318 11.9774L32.5 -0.363525H37.8182V3.86375L21.4545 16.0683L37.8182 28.2047V32.3637H32.3636L16 20.1592L-0.295449 32.3637H-5.81818V28.2728L10.4773 16.1365L-5.81818 4.00011V-0.363525H-0.70454Z" fill="white"/>
<path d="M23.0909 18.7956L37.8182 29.6365V32.3637L19.3409 18.7956H23.0909ZM10.5455 20.1592L10.9545 22.5456L-2.13636 32.3637H-5.81818L10.5455 20.1592ZM37.8182 -0.363525V-0.15898L20.8409 12.6592L20.9773 9.6592L34.4091 -0.363525H37.8182ZM-5.81818 -0.363525L10.4773 11.6365H6.38637L-5.81818 2.50011V-0.363525Z" fill="#C8102E"/>
<path d="M10.6136 -0.363525V32.3637H21.5227V-0.363525H10.6136ZM-5.81818 10.5456V21.4547H37.8182V10.5456H-5.81818Z" fill="white"/>
<path d="M-5.81818 12.7956V19.341H37.8182V12.7956H-5.81818ZM12.7955 -0.363525V32.3637H19.3409V-0.363525H12.7955Z" fill="#C8102E"/>
</g>
<defs>
<clipPath id="clip0_3088_1348">
<rect width="43.6364" height="32.7273" fill="white" transform="translate(-5.81818 -0.363525)"/>
</clipPath>
</defs>
</svg>
