<svg width="32" height="32" viewBox="0 0 32 32" fill="none" xmlns="http://www.w3.org/2000/svg">
<g clip-path="url(#clip0_2383_61054)">
<rect width="32" height="32" rx="16" fill="#16171A"/>
<path d="M31.5213 19.8693C29.3864 28.453 20.6915 33.6566 12.13 31.5218C3.56848 29.387 -1.65738 20.6921 0.47744 12.1306C2.61226 3.54681 11.3072 -1.65681 19.8687 0.478006C28.4525 2.59059 33.6561 11.2855 31.5213 19.8693Z" fill="#F7931A"/>
<path d="M23.0487 13.7096C23.36 11.5748 21.7367 10.4407 19.5352 9.66233L20.2468 6.77143L18.49 6.32668L17.8006 9.12863C17.3336 9.01744 16.8666 8.90625 16.3996 8.79506L17.1112 5.97088L15.3545 5.52612L14.6429 8.41702C14.2648 8.32807 13.8868 8.23912 13.531 8.15017L11.1071 7.54975L10.6401 9.41772C10.6401 9.41772 11.9521 9.70681 11.9076 9.72905C12.6192 9.90695 12.7527 10.3739 12.7304 10.752L11.9076 14.0432C11.9521 14.0654 12.0188 14.0654 12.0855 14.1099C12.0188 14.0876 11.9743 14.0876 11.9076 14.0654L10.7513 18.6686C10.6623 18.891 10.4399 19.2023 9.95071 19.0911C9.97294 19.1134 8.68316 18.7798 8.68316 18.7798L7.81589 20.7812L10.1064 21.3594C10.5289 21.4705 10.9514 21.5817 11.3517 21.6929L10.6178 24.6061L12.3746 25.0508L13.0862 22.1599C13.5754 22.2933 14.0202 22.4045 14.4872 22.5157L13.7756 25.3844L15.5324 25.8291L16.2662 22.916C19.2683 23.4719 21.5143 23.2496 22.4705 20.5366C23.2266 18.3573 22.4261 17.0897 20.8472 16.2669C21.9591 16.0223 22.8263 15.2662 23.0487 13.7096ZM19.0459 19.3357C18.5122 21.515 14.8208 20.3364 13.6422 20.0473L14.5984 16.178C15.7992 16.4671 19.6019 17.0675 19.0459 19.3357ZM19.5796 13.6874C19.0904 15.6665 16.0216 14.6658 15.0431 14.4212L15.9104 10.9076C16.9111 11.1523 20.1133 11.6193 19.5796 13.6874Z" fill="white"/>
</g>
<rect x="0.25" y="0.25" width="31.5" height="31.5" rx="15.75" stroke="black" stroke-opacity="0.12" stroke-width="0.5"/>
<defs>
<clipPath id="clip0_2383_61054">
<rect width="32" height="32" rx="16" fill="white"/>
</clipPath>
</defs>
</svg>
